<svg xmlns="http://www.w3.org/2000/svg" xmlns:xlink="http://www.w3.org/1999/xlink" width="266.405" height="266.396" viewBox="0 0 266.405 266.396">
  <defs>
    <linearGradient id="linear-gradient" x1="0.5" x2="0.5" y2="1" gradientUnits="objectBoundingBox">
      <stop offset="0" stop-color="#162782"/>
      <stop offset="1" stop-color="#0585ca"/>
    </linearGradient>
  </defs>
  <path id="Fav" d="M133.2,266.39a133.2,133.2,0,1,1,94.19-39.01h0a132.309,132.309,0,0,1-94.19,39.01ZM56.84,67.49v73.33a60.808,60.808,0,0,0,10.21,34.12c16.67,24.26,46.33,26.14,55.05,26.14,1.1,0,1.94,0,2.33-.05h4.8a72.013,72.013,0,0,1-49.1-29.3A54.065,54.065,0,0,1,69.93,141V79.73h39.3a55.339,55.339,0,0,1,26.91,6.99,43.518,43.518,0,0,1,23.09,35.8v30.62l12.73,12.85V122.56a57.057,57.057,0,0,0-3.25-17.88,53.7,53.7,0,0,0-24.98-29.9,59.278,59.278,0,0,0-28.41-7.26H56.84Zm38.68,35.19v43.39a56.934,56.934,0,0,0,3.25,17.86,53.7,53.7,0,0,0,24.99,29.87,59.2,59.2,0,0,0,28.36,7.26h58.43V125.44a51.864,51.864,0,0,0-3.01-17.4,60.094,60.094,0,0,0-19.21-27.46,75.836,75.836,0,0,0-47.67-13.09h-2.48l1.17.42c24.42,7.95,44.9,22.11,52.16,36.09a42.212,42.212,0,0,1,5.43,22.28v62.56H158.16a55.436,55.436,0,0,1-24.58-5.76,43.87,43.87,0,0,1-23.73-27.86,47.66,47.66,0,0,1-1.61-12.29v-27.4L95.51,102.7Z" transform="translate(0 0.005)" fill="url(#linear-gradient)"/>
</svg>
