<svg xmlns="http://www.w3.org/2000/svg" width="335.032" height="105.126" viewBox="0 0 335.032 105.126">
  <g id="Group_4" data-name="Group 4" transform="translate(-1484.968 -68.903)">
    <g id="Group_2" data-name="Group 2" transform="translate(-913.032 15.6)">
      <g id="Group_1" data-name="Group 1" transform="translate(2398 53.302)">
        <path id="Path_1" data-name="Path 1" d="M317.762,105.007a12.148,12.148,0,0,0-3.682,8.871v1.681h21.448a9.156,9.156,0,0,1-8.958,7.383H314.08v3.492h12.589a12.6,12.6,0,0,0,12.521-12.624v-1.744H317.742a8.762,8.762,0,0,1,3.054-5.138,8.934,8.934,0,0,1,5.9-2.147h12.49V101.29H326.633A12.268,12.268,0,0,0,317.762,105.007Z" transform="translate(-190.136 -61.317)" fill="#fff"/>
        <path id="Path_2" data-name="Path 2" d="M410.148,122.34a8.317,8.317,0,0,0-6.661,3.3,8.4,8.4,0,0,0-15.086,5.138v8.4h3.524v-8.4a4.767,4.767,0,0,1,1.425-3.485,4.907,4.907,0,0,1,8.362,3.22v8.666H405.2v-8.658a4.745,4.745,0,0,1,1.519-3.311,4.978,4.978,0,0,1,6.91.1,4.726,4.726,0,0,1,1.456,3.469v8.4h3.461v-8.4a8.381,8.381,0,0,0-8.4-8.433Z" transform="translate(-235.128 -74.06)" fill="#fff"/>
        <path id="Path_3" data-name="Path 3" d="M482.693,122.17a8.471,8.471,0,0,0,0,16.941,8.4,8.4,0,0,0,4.945-1.586v1.586h3.492v-8.469a8.461,8.461,0,0,0-8.433-8.469Zm-3.489,4.984a4.907,4.907,0,1,1-1.46,3.485A4.778,4.778,0,0,1,479.2,127.154Z" transform="translate(-287.105 -73.957)" fill="#fff"/>
        <path id="Path_4" data-name="Path 4" d="M530.188,124.665a8.094,8.094,0,0,0-2.5,5.892v8.567h3.492v-8.437a4.986,4.986,0,0,1,4.945-4.945h.2V122.25h-.2a8.227,8.227,0,0,0-5.939,2.411Z" transform="translate(-319.451 -74.005)" fill="#fff"/>
        <path id="Path_5" data-name="Path 5" d="M562.5,101.38H559.01v16.807a7.966,7.966,0,0,0,2.482,5.876,8.253,8.253,0,0,0,5.955,2.431h.2V123h-.2a4.986,4.986,0,0,1-4.945-4.945v-4.945h5.142V109.62H562.5Z" transform="translate(-338.411 -61.371)" fill="#fff"/>
        <path id="Path_6" data-name="Path 6" d="M619.793,122.951h-2.869a9.149,9.149,0,0,1-9.132-9.132V101.33H604.3v12.624a12.632,12.632,0,0,0,12.62,12.49h6.361v-25.11h-3.492v21.618Z" transform="translate(-365.829 -61.341)" fill="#fff"/>
        <rect id="Rectangle_4" data-name="Rectangle 4" width="3.492" height="16.87" transform="translate(261.707 48.233)" fill="#fff"/>
        <path id="Path_7" data-name="Path 7" d="M664.844,104.8a1.615,1.615,0,0,0,1.211-.521,1.709,1.709,0,0,0,.5-1.223,1.669,1.669,0,0,0-.5-1.211,1.647,1.647,0,0,0-1.211-.5,1.709,1.709,0,0,0-1.223.5,1.628,1.628,0,0,0-.521,1.211,1.745,1.745,0,0,0,1.744,1.748Z" transform="translate(-401.425 -61.347)" fill="#fff"/>
        <path id="Path_8" data-name="Path 8" d="M685.141,124.728a8.466,8.466,0,0,0-2.411,6.054v1.646h12.877a4.647,4.647,0,0,1-1.673,2.2,4.741,4.741,0,0,1-2.865.967H682.73v3.524h8.339a8.472,8.472,0,0,0,8.335-8.338V128.9H686.51a4.218,4.218,0,0,1,1.432-2.04,5.041,5.041,0,0,1,2.691-1.125H699.4V122.21h-8.338a7.926,7.926,0,0,0-5.927,2.514Z" transform="translate(-413.308 -73.981)" fill="#fff"/>
        <rect id="Rectangle_5" data-name="Rectangle 5" width="3.492" height="16.87" transform="translate(290.345 48.233)" fill="#fff"/>
        <path id="Path_9" data-name="Path 9" d="M737.424,104.8a1.615,1.615,0,0,0,1.211-.521,1.709,1.709,0,0,0,.5-1.223,1.669,1.669,0,0,0-.5-1.211,1.647,1.647,0,0,0-1.211-.5,1.709,1.709,0,0,0-1.223.5,1.628,1.628,0,0,0-.521,1.211,1.745,1.745,0,0,0,1.744,1.748Z" transform="translate(-445.363 -61.347)" fill="#fff"/>
        <path id="Path_10" data-name="Path 10" d="M762.446,122.3a8.1,8.1,0,0,0-5.959,2.482,8.451,8.451,0,0,0,0,11.894,8.386,8.386,0,0,0,14.325-5.939,8.213,8.213,0,0,0-2.447-5.955,8.058,8.058,0,0,0-5.923-2.482Zm-3.485,4.984a4.955,4.955,0,0,1,6.953,0,4.859,4.859,0,0,1,0,6.906,4.935,4.935,0,0,1-6.937,0,4.878,4.878,0,0,1-.016-6.906Z" transform="translate(-456.478 -74.035)" fill="#fff"/>
        <path id="Path_11" data-name="Path 11" d="M820.481,124.512a8.513,8.513,0,0,0-11.993.016,8.129,8.129,0,0,0-2.5,5.955v8.5h3.524v-8.5a4.758,4.758,0,0,1,1.456-3.5,4.835,4.835,0,0,1,3.52-1.444,4.713,4.713,0,0,1,3.469,1.44,4.8,4.8,0,0,1,1.44,3.5v8.5h3.56v-8.5a8.153,8.153,0,0,0-2.482-5.975Z" transform="translate(-487.927 -73.884)" fill="#fff"/>
        <path id="Path_12" data-name="Path 12" d="M52.564,105.121a52.562,52.562,0,1,1,37.17-15.394h0a52.212,52.212,0,0,1-37.17,15.394ZM22.43,26.63V55.568A24,24,0,0,0,26.46,69.033c6.578,9.574,18.283,10.315,21.724,10.315.434,0,.766,0,.919-.02H51A28.418,28.418,0,0,1,31.621,67.766,21.335,21.335,0,0,1,27.6,55.639V31.46H43.1a21.838,21.838,0,0,1,10.619,2.758,17.173,17.173,0,0,1,9.112,14.128V60.43L67.86,65.5V48.362a22.516,22.516,0,0,0-1.283-7.056,21.191,21.191,0,0,0-9.858-11.8,23.392,23.392,0,0,0-11.211-2.865H22.43ZM37.695,40.517V57.64a22.467,22.467,0,0,0,1.283,7.048,21.189,21.189,0,0,0,9.862,11.787A23.361,23.361,0,0,0,60.03,79.34H83.088V49.5A20.467,20.467,0,0,0,81.9,42.632,23.714,23.714,0,0,0,74.32,31.8,29.927,29.927,0,0,0,55.508,26.63h-.979l.462.166c9.637,3.137,17.719,8.725,20.584,14.242a16.658,16.658,0,0,1,2.143,8.792V74.518h-15.3a21.877,21.877,0,0,1-9.7-2.273,17.312,17.312,0,0,1-9.364-10.994,18.808,18.808,0,0,1-.635-4.85V45.588l-5.024-5.063Z" transform="translate(0 0.005)" fill="#fff"/>
      </g>
    </g>
  </g>
</svg>
