<svg id="Group_56" data-name="Group 56" xmlns="http://www.w3.org/2000/svg" xmlns:xlink="http://www.w3.org/1999/xlink" width="1920" height="1071" viewBox="0 0 1920 1071">
  <defs>
    <linearGradient id="linear-gradient" x1="1" x2="-0.078" y2="1.062" gradientUnits="objectBoundingBox">
      <stop offset="0" stop-color="#162782"/>
      <stop offset="1" stop-color="#0585ca"/>
    </linearGradient>
    <clipPath id="clip-path">
      <rect id="BG" width="1920" height="1071" fill="url(#linear-gradient)"/>
    </clipPath>
  </defs>
  <g id="pattern">
    <g id="BG-2" data-name="BG" clip-path="url(#clip-path)">
      <g id="pattern-2" data-name="pattern" transform="translate(-145 -325.523)">
        <path id="Rectangle" d="M263,0h0A263,263,0,0,1,526,263V563a0,0,0,0,1,0,0H263A263,263,0,0,1,0,300V263A263,263,0,0,1,263,0Z" transform="translate(1626 833.523)" fill="rgba(255,255,255,0.07)"/>
        <path id="Rectangle-2" data-name="Rectangle" d="M0,0H263A263,263,0,0,1,526,263v37A263,263,0,0,1,263,563h0A263,263,0,0,1,0,300V0A0,0,0,0,1,0,0Z" transform="translate(0 563.523)" fill="rgba(255,255,255,0.03)"/>
        <path id="Rectangle-3" data-name="Rectangle" d="M263,0h0A263,263,0,0,1,526,263V563a0,0,0,0,1,0,0H263A263,263,0,0,1,0,300V263A263,263,0,0,1,263,0Z" transform="translate(1626 266.523)" fill="rgba(255,255,255,0.03)"/>
        <path id="Rectangle_2.1" data-name="Rectangle 2.1" d="M0,0H200A350,350,0,0,1,550,350V833a0,0,0,0,1,0,0H0a0,0,0,0,1,0,0V0A0,0,0,0,1,0,0Z" transform="translate(526 563.523)" fill="rgba(255,255,255,0.07)"/>
        <path id="Rectangle-4" data-name="Rectangle" d="M263,0h0A263,263,0,0,1,526,263V564a0,0,0,0,1,0,0H263A263,263,0,0,1,0,301V263A263,263,0,0,1,263,0Z" transform="translate(0 -0.477)" fill="rgba(255,255,255,0.07)"/>
      </g>
    </g>
  </g>
  <g id="pattern-3" data-name="pattern" transform="translate(269 145.577)" opacity="0.4">
    <path id="Vector" d="M0,2.238V3.73H1.953V5.969h1.3V3.73H5.207V2.238H3.254V0h-1.3V2.238Z" fill="#fff"/>
    <path id="Vector-2" data-name="Vector" d="M0,2.238V3.73H1.953V5.969h1.3V3.73H5.207V2.238H3.254V0h-1.3V2.238Z" transform="translate(0 17.906)" fill="#fff"/>
    <path id="Vector-3" data-name="Vector" d="M0,2.238V3.73H1.953V5.969h1.3V3.73H5.207V2.238H3.254V0h-1.3V2.238Z" transform="translate(0 35.811)" fill="#fff"/>
    <path id="Vector-4" data-name="Vector" d="M0,2.238V3.73H1.953V5.969h1.3V3.73H5.207V2.238H3.254V0h-1.3V2.238Z" transform="translate(0 53.717)" fill="#fff"/>
    <path id="Vector-5" data-name="Vector" d="M0,2.238V3.73H1.953V5.969h1.3V3.73H5.207V2.238H3.254V0h-1.3V2.238Z" transform="translate(0 71.622)" fill="#fff"/>
    <path id="Vector-6" data-name="Vector" d="M0,2.238V3.73H1.953V5.969h1.3V3.73H5.207V2.238H3.254V0h-1.3V2.238Z" transform="translate(0 89.528)" fill="#fff"/>
    <path id="Vector-7" data-name="Vector" d="M0,2.238V3.73H1.953V5.969h1.3V3.73H5.207V2.238H3.254V0h-1.3V2.238Z" transform="translate(0 107.434)" fill="#fff"/>
    <path id="Vector-8" data-name="Vector" d="M0,2.238V3.73H1.953V5.969h1.3V3.73H5.207V2.238H3.254V0h-1.3V2.238Z" transform="translate(0 125.339)" fill="#fff"/>
    <path id="Vector-9" data-name="Vector" d="M0,2.238V3.73H1.953V5.969h1.3V3.73H5.207V2.238H3.254V0h-1.3V2.238Z" transform="translate(0 143.245)" fill="#fff"/>
    <path id="Vector-10" data-name="Vector" d="M0,2.238V3.73H1.953V5.969h1.3V3.73H5.207V2.238H3.254V0h-1.3V2.238Z" transform="translate(0 161.15)" fill="#fff"/>
    <path id="Vector-11" data-name="Vector" d="M0,2.238V3.73H1.953V5.969h1.3V3.73H5.207V2.238H3.254V0h-1.3V2.238Z" transform="translate(0 179.056)" fill="#fff"/>
    <path id="Vector-12" data-name="Vector" d="M0,2.238V3.73H1.953V5.969h1.3V3.73H5.207V2.238H3.254V0h-1.3V2.238Z" transform="translate(0 196.962)" fill="#fff"/>
    <path id="Vector-13" data-name="Vector" d="M0,2.238V3.73H1.953V5.969h1.3V3.73H5.207V2.238H3.254V0h-1.3V2.238Z" transform="translate(0 214.867)" fill="#fff"/>
    <path id="Vector-14" data-name="Vector" d="M0,2.238V3.73H1.953V5.969h1.3V3.73H5.207V2.238H3.254V0h-1.3V2.238Z" transform="translate(0 232.773)" fill="#fff"/>
    <path id="Vector-15" data-name="Vector" d="M0,2.238V3.73H1.953V5.969h1.3V3.73H5.207V2.238H3.254V0h-1.3V2.238Z" transform="translate(0 250.678)" fill="#fff"/>
    <path id="Vector-16" data-name="Vector" d="M0,2.238V3.73H1.953V5.969h1.3V3.73H5.207V2.238H3.254V0h-1.3V2.238Z" transform="translate(0 268.584)" fill="#fff"/>
    <path id="Vector-17" data-name="Vector" d="M0,2.238V3.73H1.953V5.969h1.3V3.73H5.207V2.238H3.254V0h-1.3V2.238Z" transform="translate(0 286.489)" fill="#fff"/>
    <path id="Vector-18" data-name="Vector" d="M0,2.238V3.73H1.953V5.969h1.3V3.73H5.207V2.238H3.254V0h-1.3V2.238Z" transform="translate(0 304.395)" fill="#fff"/>
    <path id="Vector-19" data-name="Vector" d="M0,2.238V3.73H1.953V5.969h1.3V3.73H5.207V2.238H3.254V0h-1.3V2.238Z" transform="translate(0 322.301)" fill="#fff"/>
    <path id="Vector-20" data-name="Vector" d="M0,2.238V3.73H1.953V5.969h1.3V3.73H5.207V2.238H3.254V0h-1.3V2.238Z" transform="translate(0 340.206)" fill="#fff"/>
    <path id="Vector-21" data-name="Vector" d="M0,2.238V3.73H1.953V5.969h1.3V3.73H5.207V2.238H3.254V0h-1.3V2.238Z" transform="translate(15.62)" fill="#fff"/>
    <path id="Vector-22" data-name="Vector" d="M0,2.238V3.73H1.953V5.969h1.3V3.73H5.207V2.238H3.254V0h-1.3V2.238Z" transform="translate(15.62 17.906)" fill="#fff"/>
    <path id="Vector-23" data-name="Vector" d="M0,2.238V3.73H1.953V5.969h1.3V3.73H5.207V2.238H3.254V0h-1.3V2.238Z" transform="translate(15.62 35.811)" fill="#fff"/>
    <path id="Vector-24" data-name="Vector" d="M0,2.238V3.73H1.953V5.969h1.3V3.73H5.207V2.238H3.254V0h-1.3V2.238Z" transform="translate(15.62 53.717)" fill="#fff"/>
    <path id="Vector-25" data-name="Vector" d="M0,2.238V3.73H1.953V5.969h1.3V3.73H5.207V2.238H3.254V0h-1.3V2.238Z" transform="translate(15.62 71.622)" fill="#fff"/>
    <path id="Vector-26" data-name="Vector" d="M0,2.238V3.73H1.953V5.969h1.3V3.73H5.207V2.238H3.254V0h-1.3V2.238Z" transform="translate(15.62 89.528)" fill="#fff"/>
    <path id="Vector-27" data-name="Vector" d="M0,2.238V3.73H1.953V5.969h1.3V3.73H5.207V2.238H3.254V0h-1.3V2.238Z" transform="translate(15.62 107.434)" fill="#fff"/>
    <path id="Vector-28" data-name="Vector" d="M0,2.238V3.73H1.953V5.969h1.3V3.73H5.207V2.238H3.254V0h-1.3V2.238Z" transform="translate(15.62 125.339)" fill="#fff"/>
    <path id="Vector-29" data-name="Vector" d="M0,2.238V3.73H1.953V5.969h1.3V3.73H5.207V2.238H3.254V0h-1.3V2.238Z" transform="translate(15.62 143.245)" fill="#fff"/>
    <path id="Vector-30" data-name="Vector" d="M0,2.238V3.73H1.953V5.969h1.3V3.73H5.207V2.238H3.254V0h-1.3V2.238Z" transform="translate(15.62 161.15)" fill="#fff"/>
    <path id="Vector-31" data-name="Vector" d="M0,2.238V3.73H1.953V5.969h1.3V3.73H5.207V2.238H3.254V0h-1.3V2.238Z" transform="translate(15.62 179.056)" fill="#fff"/>
    <path id="Vector-32" data-name="Vector" d="M0,2.238V3.73H1.953V5.969h1.3V3.73H5.207V2.238H3.254V0h-1.3V2.238Z" transform="translate(15.62 196.962)" fill="#fff"/>
    <path id="Vector-33" data-name="Vector" d="M0,2.238V3.73H1.953V5.969h1.3V3.73H5.207V2.238H3.254V0h-1.3V2.238Z" transform="translate(15.62 214.867)" fill="#fff"/>
    <path id="Vector-34" data-name="Vector" d="M0,2.238V3.73H1.953V5.969h1.3V3.73H5.207V2.238H3.254V0h-1.3V2.238Z" transform="translate(15.62 232.773)" fill="#fff"/>
    <path id="Vector-35" data-name="Vector" d="M0,2.238V3.73H1.953V5.969h1.3V3.73H5.207V2.238H3.254V0h-1.3V2.238Z" transform="translate(15.62 250.678)" fill="#fff"/>
    <path id="Vector-36" data-name="Vector" d="M0,2.238V3.73H1.953V5.969h1.3V3.73H5.207V2.238H3.254V0h-1.3V2.238Z" transform="translate(15.62 268.584)" fill="#fff"/>
    <path id="Vector-37" data-name="Vector" d="M0,2.238V3.73H1.953V5.969h1.3V3.73H5.207V2.238H3.254V0h-1.3V2.238Z" transform="translate(15.62 286.489)" fill="#fff"/>
    <path id="Vector-38" data-name="Vector" d="M0,2.238V3.73H1.953V5.969h1.3V3.73H5.207V2.238H3.254V0h-1.3V2.238Z" transform="translate(15.62 304.395)" fill="#fff"/>
    <path id="Vector-39" data-name="Vector" d="M0,2.238V3.73H1.953V5.969h1.3V3.73H5.207V2.238H3.254V0h-1.3V2.238Z" transform="translate(15.62 322.301)" fill="#fff"/>
    <path id="Vector-40" data-name="Vector" d="M0,2.238V3.73H1.953V5.969h1.3V3.73H5.207V2.238H3.254V0h-1.3V2.238Z" transform="translate(15.62 340.206)" fill="#fff"/>
    <path id="Vector-41" data-name="Vector" d="M0,2.238V3.73H1.953V5.969h1.3V3.73H5.207V2.238H3.254V0h-1.3V2.238Z" transform="translate(31.241)" fill="#fff"/>
    <path id="Vector-42" data-name="Vector" d="M0,2.238V3.73H1.953V5.969h1.3V3.73H5.207V2.238H3.254V0h-1.3V2.238Z" transform="translate(31.241 17.906)" fill="#fff"/>
    <path id="Vector-43" data-name="Vector" d="M0,2.238V3.73H1.953V5.969h1.3V3.73H5.207V2.238H3.254V0h-1.3V2.238Z" transform="translate(31.241 35.811)" fill="#fff"/>
    <path id="Vector-44" data-name="Vector" d="M0,2.238V3.73H1.953V5.969h1.3V3.73H5.207V2.238H3.254V0h-1.3V2.238Z" transform="translate(31.241 53.717)" fill="#fff"/>
    <path id="Vector-45" data-name="Vector" d="M0,2.238V3.73H1.953V5.969h1.3V3.73H5.207V2.238H3.254V0h-1.3V2.238Z" transform="translate(31.241 71.622)" fill="#fff"/>
    <path id="Vector-46" data-name="Vector" d="M0,2.238V3.73H1.953V5.969h1.3V3.73H5.207V2.238H3.254V0h-1.3V2.238Z" transform="translate(31.241 89.528)" fill="#fff"/>
    <path id="Vector-47" data-name="Vector" d="M0,2.238V3.73H1.953V5.969h1.3V3.73H5.207V2.238H3.254V0h-1.3V2.238Z" transform="translate(31.241 107.434)" fill="#fff"/>
    <path id="Vector-48" data-name="Vector" d="M0,2.238V3.73H1.953V5.969h1.3V3.73H5.207V2.238H3.254V0h-1.3V2.238Z" transform="translate(31.241 125.339)" fill="#fff"/>
    <path id="Vector-49" data-name="Vector" d="M0,2.238V3.73H1.953V5.969h1.3V3.73H5.207V2.238H3.254V0h-1.3V2.238Z" transform="translate(31.241 143.245)" fill="#fff"/>
    <path id="Vector-50" data-name="Vector" d="M0,2.238V3.73H1.953V5.969h1.3V3.73H5.207V2.238H3.254V0h-1.3V2.238Z" transform="translate(31.241 161.15)" fill="#fff"/>
    <path id="Vector-51" data-name="Vector" d="M0,2.238V3.73H1.953V5.969h1.3V3.73H5.207V2.238H3.254V0h-1.3V2.238Z" transform="translate(31.241 179.056)" fill="#fff"/>
    <path id="Vector-52" data-name="Vector" d="M0,2.238V3.73H1.953V5.969h1.3V3.73H5.207V2.238H3.254V0h-1.3V2.238Z" transform="translate(31.241 196.962)" fill="#fff"/>
    <path id="Vector-53" data-name="Vector" d="M0,2.238V3.73H1.953V5.969h1.3V3.73H5.207V2.238H3.254V0h-1.3V2.238Z" transform="translate(31.241 214.867)" fill="#fff"/>
    <path id="Vector-54" data-name="Vector" d="M0,2.238V3.73H1.953V5.969h1.3V3.73H5.207V2.238H3.254V0h-1.3V2.238Z" transform="translate(31.241 232.773)" fill="#fff"/>
    <path id="Vector-55" data-name="Vector" d="M0,2.238V3.73H1.953V5.969h1.3V3.73H5.207V2.238H3.254V0h-1.3V2.238Z" transform="translate(31.241 250.678)" fill="#fff"/>
    <path id="Vector-56" data-name="Vector" d="M0,2.238V3.73H1.953V5.969h1.3V3.73H5.207V2.238H3.254V0h-1.3V2.238Z" transform="translate(31.241 268.584)" fill="#fff"/>
    <path id="Vector-57" data-name="Vector" d="M0,2.238V3.73H1.953V5.969h1.3V3.73H5.207V2.238H3.254V0h-1.3V2.238Z" transform="translate(31.241 286.489)" fill="#fff"/>
    <path id="Vector-58" data-name="Vector" d="M0,2.238V3.73H1.953V5.969h1.3V3.73H5.207V2.238H3.254V0h-1.3V2.238Z" transform="translate(31.241 304.395)" fill="#fff"/>
    <path id="Vector-59" data-name="Vector" d="M0,2.238V3.73H1.953V5.969h1.3V3.73H5.207V2.238H3.254V0h-1.3V2.238Z" transform="translate(31.241 322.301)" fill="#fff"/>
    <path id="Vector-60" data-name="Vector" d="M0,2.238V3.73H1.953V5.969h1.3V3.73H5.207V2.238H3.254V0h-1.3V2.238Z" transform="translate(31.241 340.206)" fill="#fff"/>
    <path id="Vector-61" data-name="Vector" d="M0,2.238V3.73H1.953V5.969h1.3V3.73H5.207V2.238H3.254V0h-1.3V2.238Z" transform="translate(46.862)" fill="#fff"/>
    <path id="Vector-62" data-name="Vector" d="M0,2.238V3.73H1.953V5.969h1.3V3.73H5.207V2.238H3.254V0h-1.3V2.238Z" transform="translate(46.862 17.906)" fill="#fff"/>
    <path id="Vector-63" data-name="Vector" d="M0,2.238V3.73H1.953V5.969h1.3V3.73H5.207V2.238H3.254V0h-1.3V2.238Z" transform="translate(46.862 35.811)" fill="#fff"/>
    <path id="Vector-64" data-name="Vector" d="M0,2.238V3.73H1.953V5.969h1.3V3.73H5.207V2.238H3.254V0h-1.3V2.238Z" transform="translate(46.862 53.717)" fill="#fff"/>
    <path id="Vector-65" data-name="Vector" d="M0,2.238V3.73H1.953V5.969h1.3V3.73H5.207V2.238H3.254V0h-1.3V2.238Z" transform="translate(46.862 71.622)" fill="#fff"/>
    <path id="Vector-66" data-name="Vector" d="M0,2.238V3.73H1.953V5.969h1.3V3.73H5.207V2.238H3.254V0h-1.3V2.238Z" transform="translate(46.862 89.528)" fill="#fff"/>
    <path id="Vector-67" data-name="Vector" d="M0,2.238V3.73H1.953V5.969h1.3V3.73H5.207V2.238H3.254V0h-1.3V2.238Z" transform="translate(46.862 107.434)" fill="#fff"/>
    <path id="Vector-68" data-name="Vector" d="M0,2.238V3.73H1.953V5.969h1.3V3.73H5.207V2.238H3.254V0h-1.3V2.238Z" transform="translate(46.862 125.339)" fill="#fff"/>
    <path id="Vector-69" data-name="Vector" d="M0,2.238V3.73H1.953V5.969h1.3V3.73H5.207V2.238H3.254V0h-1.3V2.238Z" transform="translate(46.862 143.245)" fill="#fff"/>
    <path id="Vector-70" data-name="Vector" d="M0,2.238V3.73H1.953V5.969h1.3V3.73H5.207V2.238H3.254V0h-1.3V2.238Z" transform="translate(46.862 161.15)" fill="#fff"/>
    <path id="Vector-71" data-name="Vector" d="M0,2.238V3.73H1.953V5.969h1.3V3.73H5.207V2.238H3.254V0h-1.3V2.238Z" transform="translate(46.862 179.056)" fill="#fff"/>
    <path id="Vector-72" data-name="Vector" d="M0,2.238V3.73H1.953V5.969h1.3V3.73H5.207V2.238H3.254V0h-1.3V2.238Z" transform="translate(46.862 196.962)" fill="#fff"/>
    <path id="Vector-73" data-name="Vector" d="M0,2.238V3.73H1.953V5.969h1.3V3.73H5.207V2.238H3.254V0h-1.3V2.238Z" transform="translate(46.862 214.867)" fill="#fff"/>
    <path id="Vector-74" data-name="Vector" d="M0,2.238V3.73H1.953V5.969h1.3V3.73H5.207V2.238H3.254V0h-1.3V2.238Z" transform="translate(46.862 232.773)" fill="#fff"/>
    <path id="Vector-75" data-name="Vector" d="M0,2.238V3.73H1.953V5.969h1.3V3.73H5.207V2.238H3.254V0h-1.3V2.238Z" transform="translate(46.862 250.678)" fill="#fff"/>
    <path id="Vector-76" data-name="Vector" d="M0,2.238V3.73H1.953V5.969h1.3V3.73H5.207V2.238H3.254V0h-1.3V2.238Z" transform="translate(46.862 268.584)" fill="#fff"/>
    <path id="Vector-77" data-name="Vector" d="M0,2.238V3.73H1.953V5.969h1.3V3.73H5.207V2.238H3.254V0h-1.3V2.238Z" transform="translate(46.862 286.489)" fill="#fff"/>
    <path id="Vector-78" data-name="Vector" d="M0,2.238V3.73H1.953V5.969h1.3V3.73H5.207V2.238H3.254V0h-1.3V2.238Z" transform="translate(46.862 304.395)" fill="#fff"/>
    <path id="Vector-79" data-name="Vector" d="M0,2.238V3.73H1.953V5.969h1.3V3.73H5.207V2.238H3.254V0h-1.3V2.238Z" transform="translate(46.862 322.301)" fill="#fff"/>
    <path id="Vector-80" data-name="Vector" d="M0,2.238V3.73H1.953V5.969h1.3V3.73H5.207V2.238H3.254V0h-1.3V2.238Z" transform="translate(46.862 340.206)" fill="#fff"/>
    <path id="Vector-81" data-name="Vector" d="M0,2.238V3.73H1.953V5.969h1.3V3.73H5.207V2.238H3.254V0h-1.3V2.238Z" transform="translate(62.482)" fill="#fff"/>
    <path id="Vector-82" data-name="Vector" d="M0,2.238V3.73H1.953V5.969h1.3V3.73H5.207V2.238H3.254V0h-1.3V2.238Z" transform="translate(62.482 17.906)" fill="#fff"/>
    <path id="Vector-83" data-name="Vector" d="M0,2.238V3.73H1.953V5.969h1.3V3.73H5.207V2.238H3.254V0h-1.3V2.238Z" transform="translate(62.482 35.811)" fill="#fff"/>
    <path id="Vector-84" data-name="Vector" d="M0,2.238V3.73H1.953V5.969h1.3V3.73H5.207V2.238H3.254V0h-1.3V2.238Z" transform="translate(62.482 53.717)" fill="#fff"/>
    <path id="Vector-85" data-name="Vector" d="M0,2.238V3.73H1.953V5.969h1.3V3.73H5.207V2.238H3.254V0h-1.3V2.238Z" transform="translate(62.482 71.622)" fill="#fff"/>
    <path id="Vector-86" data-name="Vector" d="M0,2.238V3.73H1.953V5.969h1.3V3.73H5.207V2.238H3.254V0h-1.3V2.238Z" transform="translate(62.482 89.528)" fill="#fff"/>
    <path id="Vector-87" data-name="Vector" d="M0,2.238V3.73H1.953V5.969h1.3V3.73H5.207V2.238H3.254V0h-1.3V2.238Z" transform="translate(62.482 107.434)" fill="#fff"/>
    <path id="Vector-88" data-name="Vector" d="M0,2.238V3.73H1.953V5.969h1.3V3.73H5.207V2.238H3.254V0h-1.3V2.238Z" transform="translate(62.482 125.339)" fill="#fff"/>
    <path id="Vector-89" data-name="Vector" d="M0,2.238V3.73H1.953V5.969h1.3V3.73H5.207V2.238H3.254V0h-1.3V2.238Z" transform="translate(62.482 143.245)" fill="#fff"/>
    <path id="Vector-90" data-name="Vector" d="M0,2.238V3.73H1.953V5.969h1.3V3.73H5.207V2.238H3.254V0h-1.3V2.238Z" transform="translate(62.482 161.15)" fill="#fff"/>
    <path id="Vector-91" data-name="Vector" d="M0,2.238V3.73H1.953V5.969h1.3V3.73H5.207V2.238H3.254V0h-1.3V2.238Z" transform="translate(62.482 179.056)" fill="#fff"/>
    <path id="Vector-92" data-name="Vector" d="M0,2.238V3.73H1.953V5.969h1.3V3.73H5.207V2.238H3.254V0h-1.3V2.238Z" transform="translate(62.482 196.962)" fill="#fff"/>
    <path id="Vector-93" data-name="Vector" d="M0,2.238V3.73H1.953V5.969h1.3V3.73H5.207V2.238H3.254V0h-1.3V2.238Z" transform="translate(62.482 214.867)" fill="#fff"/>
    <path id="Vector-94" data-name="Vector" d="M0,2.238V3.73H1.953V5.969h1.3V3.73H5.207V2.238H3.254V0h-1.3V2.238Z" transform="translate(62.482 232.773)" fill="#fff"/>
    <path id="Vector-95" data-name="Vector" d="M0,2.238V3.73H1.953V5.969h1.3V3.73H5.207V2.238H3.254V0h-1.3V2.238Z" transform="translate(62.482 250.678)" fill="#fff"/>
    <path id="Vector-96" data-name="Vector" d="M0,2.238V3.73H1.953V5.969h1.3V3.73H5.207V2.238H3.254V0h-1.3V2.238Z" transform="translate(62.482 268.584)" fill="#fff"/>
    <path id="Vector-97" data-name="Vector" d="M0,2.238V3.73H1.953V5.969h1.3V3.73H5.207V2.238H3.254V0h-1.3V2.238Z" transform="translate(62.482 286.489)" fill="#fff"/>
    <path id="Vector-98" data-name="Vector" d="M0,2.238V3.73H1.953V5.969h1.3V3.73H5.207V2.238H3.254V0h-1.3V2.238Z" transform="translate(62.482 304.395)" fill="#fff"/>
    <path id="Vector-99" data-name="Vector" d="M0,2.238V3.73H1.953V5.969h1.3V3.73H5.207V2.238H3.254V0h-1.3V2.238Z" transform="translate(62.482 322.301)" fill="#fff"/>
    <path id="Vector-100" data-name="Vector" d="M0,2.238V3.73H1.953V5.969h1.3V3.73H5.207V2.238H3.254V0h-1.3V2.238Z" transform="translate(62.482 340.206)" fill="#fff"/>
    <path id="Vector-101" data-name="Vector" d="M0,2.238V3.73H1.953V5.969h1.3V3.73H5.207V2.238H3.254V0h-1.3V2.238Z" transform="translate(78.103)" fill="#fff"/>
    <path id="Vector-102" data-name="Vector" d="M0,2.238V3.73H1.953V5.969h1.3V3.73H5.207V2.238H3.254V0h-1.3V2.238Z" transform="translate(78.103 17.906)" fill="#fff"/>
    <path id="Vector-103" data-name="Vector" d="M0,2.238V3.73H1.953V5.969h1.3V3.73H5.207V2.238H3.254V0h-1.3V2.238Z" transform="translate(78.103 35.811)" fill="#fff"/>
    <path id="Vector-104" data-name="Vector" d="M0,2.238V3.73H1.953V5.969h1.3V3.73H5.207V2.238H3.254V0h-1.3V2.238Z" transform="translate(78.103 53.717)" fill="#fff"/>
    <path id="Vector-105" data-name="Vector" d="M0,2.238V3.73H1.953V5.969h1.3V3.73H5.207V2.238H3.254V0h-1.3V2.238Z" transform="translate(78.103 71.622)" fill="#fff"/>
    <path id="Vector-106" data-name="Vector" d="M0,2.238V3.73H1.953V5.969h1.3V3.73H5.207V2.238H3.254V0h-1.3V2.238Z" transform="translate(78.103 89.528)" fill="#fff"/>
    <path id="Vector-107" data-name="Vector" d="M0,2.238V3.73H1.953V5.969h1.3V3.73H5.207V2.238H3.254V0h-1.3V2.238Z" transform="translate(78.103 107.434)" fill="#fff"/>
    <path id="Vector-108" data-name="Vector" d="M0,2.238V3.73H1.953V5.969h1.3V3.73H5.207V2.238H3.254V0h-1.3V2.238Z" transform="translate(78.103 125.339)" fill="#fff"/>
    <path id="Vector-109" data-name="Vector" d="M0,2.238V3.73H1.953V5.969h1.3V3.73H5.207V2.238H3.254V0h-1.3V2.238Z" transform="translate(78.103 143.245)" fill="#fff"/>
    <path id="Vector-110" data-name="Vector" d="M0,2.238V3.73H1.953V5.969h1.3V3.73H5.207V2.238H3.254V0h-1.3V2.238Z" transform="translate(78.103 161.15)" fill="#fff"/>
    <path id="Vector-111" data-name="Vector" d="M0,2.238V3.73H1.953V5.969h1.3V3.73H5.207V2.238H3.254V0h-1.3V2.238Z" transform="translate(78.103 179.056)" fill="#fff"/>
    <path id="Vector-112" data-name="Vector" d="M0,2.238V3.73H1.953V5.969h1.3V3.73H5.207V2.238H3.254V0h-1.3V2.238Z" transform="translate(78.103 196.962)" fill="#fff"/>
    <path id="Vector-113" data-name="Vector" d="M0,2.238V3.73H1.953V5.969h1.3V3.73H5.207V2.238H3.254V0h-1.3V2.238Z" transform="translate(78.103 214.867)" fill="#fff"/>
    <path id="Vector-114" data-name="Vector" d="M0,2.238V3.73H1.953V5.969h1.3V3.73H5.207V2.238H3.254V0h-1.3V2.238Z" transform="translate(78.103 232.773)" fill="#fff"/>
    <path id="Vector-115" data-name="Vector" d="M0,2.238V3.73H1.953V5.969h1.3V3.73H5.207V2.238H3.254V0h-1.3V2.238Z" transform="translate(78.103 250.678)" fill="#fff"/>
    <path id="Vector-116" data-name="Vector" d="M0,2.238V3.73H1.953V5.969h1.3V3.73H5.207V2.238H3.254V0h-1.3V2.238Z" transform="translate(78.103 268.584)" fill="#fff"/>
    <path id="Vector-117" data-name="Vector" d="M0,2.238V3.73H1.953V5.969h1.3V3.73H5.207V2.238H3.254V0h-1.3V2.238Z" transform="translate(78.103 286.489)" fill="#fff"/>
    <path id="Vector-118" data-name="Vector" d="M0,2.238V3.73H1.953V5.969h1.3V3.73H5.207V2.238H3.254V0h-1.3V2.238Z" transform="translate(78.103 304.395)" fill="#fff"/>
    <path id="Vector-119" data-name="Vector" d="M0,2.238V3.73H1.953V5.969h1.3V3.73H5.207V2.238H3.254V0h-1.3V2.238Z" transform="translate(78.103 322.301)" fill="#fff"/>
    <path id="Vector-120" data-name="Vector" d="M0,2.238V3.73H1.953V5.969h1.3V3.73H5.207V2.238H3.254V0h-1.3V2.238Z" transform="translate(78.103 340.206)" fill="#fff"/>
    <path id="Vector-121" data-name="Vector" d="M0,2.238V3.73H1.953V5.969h1.3V3.73H5.207V2.238H3.254V0h-1.3V2.238Z" transform="translate(93.724)" fill="#fff"/>
    <path id="Vector-122" data-name="Vector" d="M0,2.238V3.73H1.953V5.969h1.3V3.73H5.207V2.238H3.254V0h-1.3V2.238Z" transform="translate(93.724 17.906)" fill="#fff"/>
    <path id="Vector-123" data-name="Vector" d="M0,2.238V3.73H1.953V5.969h1.3V3.73H5.207V2.238H3.254V0h-1.3V2.238Z" transform="translate(93.724 35.811)" fill="#fff"/>
    <path id="Vector-124" data-name="Vector" d="M0,2.238V3.73H1.953V5.969h1.3V3.73H5.207V2.238H3.254V0h-1.3V2.238Z" transform="translate(93.724 53.717)" fill="#fff"/>
    <path id="Vector-125" data-name="Vector" d="M0,2.238V3.73H1.953V5.969h1.3V3.73H5.207V2.238H3.254V0h-1.3V2.238Z" transform="translate(93.724 71.622)" fill="#fff"/>
    <path id="Vector-126" data-name="Vector" d="M0,2.238V3.73H1.953V5.969h1.3V3.73H5.207V2.238H3.254V0h-1.3V2.238Z" transform="translate(93.724 89.528)" fill="#fff"/>
    <path id="Vector-127" data-name="Vector" d="M0,2.238V3.73H1.953V5.969h1.3V3.73H5.207V2.238H3.254V0h-1.3V2.238Z" transform="translate(93.724 107.434)" fill="#fff"/>
    <path id="Vector-128" data-name="Vector" d="M0,2.238V3.73H1.953V5.969h1.3V3.73H5.207V2.238H3.254V0h-1.3V2.238Z" transform="translate(93.724 125.339)" fill="#fff"/>
    <path id="Vector-129" data-name="Vector" d="M0,2.238V3.73H1.953V5.969h1.3V3.73H5.207V2.238H3.254V0h-1.3V2.238Z" transform="translate(93.724 143.245)" fill="#fff"/>
    <path id="Vector-130" data-name="Vector" d="M0,2.238V3.73H1.953V5.969h1.3V3.73H5.207V2.238H3.254V0h-1.3V2.238Z" transform="translate(93.724 161.15)" fill="#fff"/>
    <path id="Vector-131" data-name="Vector" d="M0,2.238V3.73H1.953V5.969h1.3V3.73H5.207V2.238H3.254V0h-1.3V2.238Z" transform="translate(93.724 179.056)" fill="#fff"/>
    <path id="Vector-132" data-name="Vector" d="M0,2.238V3.73H1.953V5.969h1.3V3.73H5.207V2.238H3.254V0h-1.3V2.238Z" transform="translate(93.724 196.962)" fill="#fff"/>
    <path id="Vector-133" data-name="Vector" d="M0,2.238V3.73H1.953V5.969h1.3V3.73H5.207V2.238H3.254V0h-1.3V2.238Z" transform="translate(93.724 214.867)" fill="#fff"/>
    <path id="Vector-134" data-name="Vector" d="M0,2.238V3.73H1.953V5.969h1.3V3.73H5.207V2.238H3.254V0h-1.3V2.238Z" transform="translate(93.724 232.773)" fill="#fff"/>
    <path id="Vector-135" data-name="Vector" d="M0,2.238V3.73H1.953V5.969h1.3V3.73H5.207V2.238H3.254V0h-1.3V2.238Z" transform="translate(93.724 250.678)" fill="#fff"/>
    <path id="Vector-136" data-name="Vector" d="M0,2.238V3.73H1.953V5.969h1.3V3.73H5.207V2.238H3.254V0h-1.3V2.238Z" transform="translate(93.724 268.584)" fill="#fff"/>
    <path id="Vector-137" data-name="Vector" d="M0,2.238V3.73H1.953V5.969h1.3V3.73H5.207V2.238H3.254V0h-1.3V2.238Z" transform="translate(93.724 286.489)" fill="#fff"/>
    <path id="Vector-138" data-name="Vector" d="M0,2.238V3.73H1.953V5.969h1.3V3.73H5.207V2.238H3.254V0h-1.3V2.238Z" transform="translate(93.724 304.395)" fill="#fff"/>
    <path id="Vector-139" data-name="Vector" d="M0,2.238V3.73H1.953V5.969h1.3V3.73H5.207V2.238H3.254V0h-1.3V2.238Z" transform="translate(93.724 322.301)" fill="#fff"/>
    <path id="Vector-140" data-name="Vector" d="M0,2.238V3.73H1.953V5.969h1.3V3.73H5.207V2.238H3.254V0h-1.3V2.238Z" transform="translate(93.724 340.206)" fill="#fff"/>
    <path id="Vector-141" data-name="Vector" d="M0,2.238V3.73H1.953V5.969h1.3V3.73H5.207V2.238H3.254V0h-1.3V2.238Z" transform="translate(109.345)" fill="#fff"/>
    <path id="Vector-142" data-name="Vector" d="M0,2.238V3.73H1.953V5.969h1.3V3.73H5.207V2.238H3.254V0h-1.3V2.238Z" transform="translate(109.345 17.906)" fill="#fff"/>
    <path id="Vector-143" data-name="Vector" d="M0,2.238V3.73H1.953V5.969h1.3V3.73H5.207V2.238H3.254V0h-1.3V2.238Z" transform="translate(109.345 35.811)" fill="#fff"/>
    <path id="Vector-144" data-name="Vector" d="M0,2.238V3.73H1.953V5.969h1.3V3.73H5.207V2.238H3.254V0h-1.3V2.238Z" transform="translate(109.345 53.717)" fill="#fff"/>
    <path id="Vector-145" data-name="Vector" d="M0,2.238V3.73H1.953V5.969h1.3V3.73H5.207V2.238H3.254V0h-1.3V2.238Z" transform="translate(109.345 71.622)" fill="#fff"/>
    <path id="Vector-146" data-name="Vector" d="M0,2.238V3.73H1.953V5.969h1.3V3.73H5.207V2.238H3.254V0h-1.3V2.238Z" transform="translate(109.345 89.528)" fill="#fff"/>
    <path id="Vector-147" data-name="Vector" d="M0,2.238V3.73H1.953V5.969h1.3V3.73H5.207V2.238H3.254V0h-1.3V2.238Z" transform="translate(109.345 107.434)" fill="#fff"/>
    <path id="Vector-148" data-name="Vector" d="M0,2.238V3.73H1.953V5.969h1.3V3.73H5.207V2.238H3.254V0h-1.3V2.238Z" transform="translate(109.345 125.339)" fill="#fff"/>
    <path id="Vector-149" data-name="Vector" d="M0,2.238V3.73H1.953V5.969h1.3V3.73H5.207V2.238H3.254V0h-1.3V2.238Z" transform="translate(109.345 143.245)" fill="#fff"/>
    <path id="Vector-150" data-name="Vector" d="M0,2.238V3.73H1.953V5.969h1.3V3.73H5.207V2.238H3.254V0h-1.3V2.238Z" transform="translate(109.345 161.15)" fill="#fff"/>
    <path id="Vector-151" data-name="Vector" d="M0,2.238V3.73H1.953V5.969h1.3V3.73H5.207V2.238H3.254V0h-1.3V2.238Z" transform="translate(109.345 179.056)" fill="#fff"/>
    <path id="Vector-152" data-name="Vector" d="M0,2.238V3.73H1.953V5.969h1.3V3.73H5.207V2.238H3.254V0h-1.3V2.238Z" transform="translate(109.345 196.962)" fill="#fff"/>
    <path id="Vector-153" data-name="Vector" d="M0,2.238V3.73H1.953V5.969h1.3V3.73H5.207V2.238H3.254V0h-1.3V2.238Z" transform="translate(109.345 214.867)" fill="#fff"/>
    <path id="Vector-154" data-name="Vector" d="M0,2.238V3.73H1.953V5.969h1.3V3.73H5.207V2.238H3.254V0h-1.3V2.238Z" transform="translate(109.345 232.773)" fill="#fff"/>
    <path id="Vector-155" data-name="Vector" d="M0,2.238V3.73H1.953V5.969h1.3V3.73H5.207V2.238H3.254V0h-1.3V2.238Z" transform="translate(109.345 250.678)" fill="#fff"/>
    <path id="Vector-156" data-name="Vector" d="M0,2.238V3.73H1.953V5.969h1.3V3.73H5.207V2.238H3.254V0h-1.3V2.238Z" transform="translate(109.345 268.584)" fill="#fff"/>
    <path id="Vector-157" data-name="Vector" d="M0,2.238V3.73H1.953V5.969h1.3V3.73H5.207V2.238H3.254V0h-1.3V2.238Z" transform="translate(109.345 286.489)" fill="#fff"/>
    <path id="Vector-158" data-name="Vector" d="M0,2.238V3.73H1.953V5.969h1.3V3.73H5.207V2.238H3.254V0h-1.3V2.238Z" transform="translate(109.345 304.395)" fill="#fff"/>
    <path id="Vector-159" data-name="Vector" d="M0,2.238V3.73H1.953V5.969h1.3V3.73H5.207V2.238H3.254V0h-1.3V2.238Z" transform="translate(109.345 322.301)" fill="#fff"/>
    <path id="Vector-160" data-name="Vector" d="M0,2.238V3.73H1.953V5.969h1.3V3.73H5.207V2.238H3.254V0h-1.3V2.238Z" transform="translate(109.345 340.206)" fill="#fff"/>
    <path id="Vector-161" data-name="Vector" d="M0,2.238V3.73H1.953V5.969h1.3V3.73H5.207V2.238H3.254V0h-1.3V2.238Z" transform="translate(124.965)" fill="#fff"/>
    <path id="Vector-162" data-name="Vector" d="M0,2.238V3.73H1.953V5.969h1.3V3.73H5.207V2.238H3.254V0h-1.3V2.238Z" transform="translate(124.965 17.906)" fill="#fff"/>
    <path id="Vector-163" data-name="Vector" d="M0,2.238V3.73H1.953V5.969h1.3V3.73H5.207V2.238H3.254V0h-1.3V2.238Z" transform="translate(124.965 35.811)" fill="#fff"/>
    <path id="Vector-164" data-name="Vector" d="M0,2.238V3.73H1.953V5.969h1.3V3.73H5.207V2.238H3.254V0h-1.3V2.238Z" transform="translate(124.965 53.717)" fill="#fff"/>
    <path id="Vector-165" data-name="Vector" d="M0,2.238V3.73H1.953V5.969h1.3V3.73H5.207V2.238H3.254V0h-1.3V2.238Z" transform="translate(124.965 71.622)" fill="#fff"/>
    <path id="Vector-166" data-name="Vector" d="M0,2.238V3.73H1.953V5.969h1.3V3.73H5.207V2.238H3.254V0h-1.3V2.238Z" transform="translate(124.965 89.528)" fill="#fff"/>
    <path id="Vector-167" data-name="Vector" d="M0,2.238V3.73H1.953V5.969h1.3V3.73H5.207V2.238H3.254V0h-1.3V2.238Z" transform="translate(124.965 107.434)" fill="#fff"/>
    <path id="Vector-168" data-name="Vector" d="M0,2.238V3.73H1.953V5.969h1.3V3.73H5.207V2.238H3.254V0h-1.3V2.238Z" transform="translate(124.965 125.339)" fill="#fff"/>
    <path id="Vector-169" data-name="Vector" d="M0,2.238V3.73H1.953V5.969h1.3V3.73H5.207V2.238H3.254V0h-1.3V2.238Z" transform="translate(124.965 143.245)" fill="#fff"/>
    <path id="Vector-170" data-name="Vector" d="M0,2.238V3.73H1.953V5.969h1.3V3.73H5.207V2.238H3.254V0h-1.3V2.238Z" transform="translate(124.965 161.15)" fill="#fff"/>
    <path id="Vector-171" data-name="Vector" d="M0,2.238V3.73H1.953V5.969h1.3V3.73H5.207V2.238H3.254V0h-1.3V2.238Z" transform="translate(124.965 179.056)" fill="#fff"/>
    <path id="Vector-172" data-name="Vector" d="M0,2.238V3.73H1.953V5.969h1.3V3.73H5.207V2.238H3.254V0h-1.3V2.238Z" transform="translate(124.965 196.962)" fill="#fff"/>
    <path id="Vector-173" data-name="Vector" d="M0,2.238V3.73H1.953V5.969h1.3V3.73H5.207V2.238H3.254V0h-1.3V2.238Z" transform="translate(124.965 214.867)" fill="#fff"/>
    <path id="Vector-174" data-name="Vector" d="M0,2.238V3.73H1.953V5.969h1.3V3.73H5.207V2.238H3.254V0h-1.3V2.238Z" transform="translate(124.965 232.773)" fill="#fff"/>
    <path id="Vector-175" data-name="Vector" d="M0,2.238V3.73H1.953V5.969h1.3V3.73H5.207V2.238H3.254V0h-1.3V2.238Z" transform="translate(124.965 250.678)" fill="#fff"/>
    <path id="Vector-176" data-name="Vector" d="M0,2.238V3.73H1.953V5.969h1.3V3.73H5.207V2.238H3.254V0h-1.3V2.238Z" transform="translate(124.965 268.584)" fill="#fff"/>
    <path id="Vector-177" data-name="Vector" d="M0,2.238V3.73H1.953V5.969h1.3V3.73H5.207V2.238H3.254V0h-1.3V2.238Z" transform="translate(124.965 286.489)" fill="#fff"/>
    <path id="Vector-178" data-name="Vector" d="M0,2.238V3.73H1.953V5.969h1.3V3.73H5.207V2.238H3.254V0h-1.3V2.238Z" transform="translate(124.965 304.395)" fill="#fff"/>
    <path id="Vector-179" data-name="Vector" d="M0,2.238V3.73H1.953V5.969h1.3V3.73H5.207V2.238H3.254V0h-1.3V2.238Z" transform="translate(124.965 322.301)" fill="#fff"/>
    <path id="Vector-180" data-name="Vector" d="M0,2.238V3.73H1.953V5.969h1.3V3.73H5.207V2.238H3.254V0h-1.3V2.238Z" transform="translate(124.965 340.206)" fill="#fff"/>
    <path id="Vector-181" data-name="Vector" d="M0,2.238V3.73H1.953V5.969h1.3V3.73H5.207V2.238H3.254V0h-1.3V2.238Z" transform="translate(140.586)" fill="#fff"/>
    <path id="Vector-182" data-name="Vector" d="M0,2.238V3.73H1.953V5.969h1.3V3.73H5.207V2.238H3.254V0h-1.3V2.238Z" transform="translate(140.586 17.906)" fill="#fff"/>
    <path id="Vector-183" data-name="Vector" d="M0,2.238V3.73H1.953V5.969h1.3V3.73H5.207V2.238H3.254V0h-1.3V2.238Z" transform="translate(140.586 35.811)" fill="#fff"/>
    <path id="Vector-184" data-name="Vector" d="M0,2.238V3.73H1.953V5.969h1.3V3.73H5.207V2.238H3.254V0h-1.3V2.238Z" transform="translate(140.586 53.717)" fill="#fff"/>
    <path id="Vector-185" data-name="Vector" d="M0,2.238V3.73H1.953V5.969h1.3V3.73H5.207V2.238H3.254V0h-1.3V2.238Z" transform="translate(140.586 71.622)" fill="#fff"/>
    <path id="Vector-186" data-name="Vector" d="M0,2.238V3.73H1.953V5.969h1.3V3.73H5.207V2.238H3.254V0h-1.3V2.238Z" transform="translate(140.586 89.528)" fill="#fff"/>
    <path id="Vector-187" data-name="Vector" d="M0,2.238V3.73H1.953V5.969h1.3V3.73H5.207V2.238H3.254V0h-1.3V2.238Z" transform="translate(140.586 107.434)" fill="#fff"/>
    <path id="Vector-188" data-name="Vector" d="M0,2.238V3.73H1.953V5.969h1.3V3.73H5.207V2.238H3.254V0h-1.3V2.238Z" transform="translate(140.586 125.339)" fill="#fff"/>
    <path id="Vector-189" data-name="Vector" d="M0,2.238V3.73H1.953V5.969h1.3V3.73H5.207V2.238H3.254V0h-1.3V2.238Z" transform="translate(140.586 143.245)" fill="#fff"/>
    <path id="Vector-190" data-name="Vector" d="M0,2.238V3.73H1.953V5.969h1.3V3.73H5.207V2.238H3.254V0h-1.3V2.238Z" transform="translate(140.586 161.15)" fill="#fff"/>
    <path id="Vector-191" data-name="Vector" d="M0,2.238V3.73H1.953V5.969h1.3V3.73H5.207V2.238H3.254V0h-1.3V2.238Z" transform="translate(140.586 179.056)" fill="#fff"/>
    <path id="Vector-192" data-name="Vector" d="M0,2.238V3.73H1.953V5.969h1.3V3.73H5.207V2.238H3.254V0h-1.3V2.238Z" transform="translate(140.586 196.962)" fill="#fff"/>
    <path id="Vector-193" data-name="Vector" d="M0,2.238V3.73H1.953V5.969h1.3V3.73H5.207V2.238H3.254V0h-1.3V2.238Z" transform="translate(140.586 214.867)" fill="#fff"/>
    <path id="Vector-194" data-name="Vector" d="M0,2.238V3.73H1.953V5.969h1.3V3.73H5.207V2.238H3.254V0h-1.3V2.238Z" transform="translate(140.586 232.773)" fill="#fff"/>
    <path id="Vector-195" data-name="Vector" d="M0,2.238V3.73H1.953V5.969h1.3V3.73H5.207V2.238H3.254V0h-1.3V2.238Z" transform="translate(140.586 250.678)" fill="#fff"/>
    <path id="Vector-196" data-name="Vector" d="M0,2.238V3.73H1.953V5.969h1.3V3.73H5.207V2.238H3.254V0h-1.3V2.238Z" transform="translate(140.586 268.584)" fill="#fff"/>
    <path id="Vector-197" data-name="Vector" d="M0,2.238V3.73H1.953V5.969h1.3V3.73H5.207V2.238H3.254V0h-1.3V2.238Z" transform="translate(140.586 286.489)" fill="#fff"/>
    <path id="Vector-198" data-name="Vector" d="M0,2.238V3.73H1.953V5.969h1.3V3.73H5.207V2.238H3.254V0h-1.3V2.238Z" transform="translate(140.586 304.395)" fill="#fff"/>
    <path id="Vector-199" data-name="Vector" d="M0,2.238V3.73H1.953V5.969h1.3V3.73H5.207V2.238H3.254V0h-1.3V2.238Z" transform="translate(140.586 322.301)" fill="#fff"/>
    <path id="Vector-200" data-name="Vector" d="M0,2.238V3.73H1.953V5.969h1.3V3.73H5.207V2.238H3.254V0h-1.3V2.238Z" transform="translate(140.586 340.206)" fill="#fff"/>
    <path id="Vector-201" data-name="Vector" d="M0,2.238V3.73H1.953V5.969h1.3V3.73H5.207V2.238H3.254V0h-1.3V2.238Z" transform="translate(156.207)" fill="#fff"/>
    <path id="Vector-202" data-name="Vector" d="M0,2.238V3.73H1.953V5.969h1.3V3.73H5.207V2.238H3.254V0h-1.3V2.238Z" transform="translate(156.207 17.906)" fill="#fff"/>
    <path id="Vector-203" data-name="Vector" d="M0,2.238V3.73H1.953V5.969h1.3V3.73H5.207V2.238H3.254V0h-1.3V2.238Z" transform="translate(156.207 35.811)" fill="#fff"/>
    <path id="Vector-204" data-name="Vector" d="M0,2.238V3.73H1.953V5.969h1.3V3.73H5.207V2.238H3.254V0h-1.3V2.238Z" transform="translate(156.207 53.717)" fill="#fff"/>
    <path id="Vector-205" data-name="Vector" d="M0,2.238V3.73H1.953V5.969h1.3V3.73H5.207V2.238H3.254V0h-1.3V2.238Z" transform="translate(156.207 71.622)" fill="#fff"/>
    <path id="Vector-206" data-name="Vector" d="M0,2.238V3.73H1.953V5.969h1.3V3.73H5.207V2.238H3.254V0h-1.3V2.238Z" transform="translate(156.207 89.528)" fill="#fff"/>
    <path id="Vector-207" data-name="Vector" d="M0,2.238V3.73H1.953V5.969h1.3V3.73H5.207V2.238H3.254V0h-1.3V2.238Z" transform="translate(156.207 107.434)" fill="#fff"/>
    <path id="Vector-208" data-name="Vector" d="M0,2.238V3.73H1.953V5.969h1.3V3.73H5.207V2.238H3.254V0h-1.3V2.238Z" transform="translate(156.207 125.339)" fill="#fff"/>
    <path id="Vector-209" data-name="Vector" d="M0,2.238V3.73H1.953V5.969h1.3V3.73H5.207V2.238H3.254V0h-1.3V2.238Z" transform="translate(156.207 143.245)" fill="#fff"/>
    <path id="Vector-210" data-name="Vector" d="M0,2.238V3.73H1.953V5.969h1.3V3.73H5.207V2.238H3.254V0h-1.3V2.238Z" transform="translate(156.207 161.15)" fill="#fff"/>
    <path id="Vector-211" data-name="Vector" d="M0,2.238V3.73H1.953V5.969h1.3V3.73H5.207V2.238H3.254V0h-1.3V2.238Z" transform="translate(156.207 179.056)" fill="#fff"/>
    <path id="Vector-212" data-name="Vector" d="M0,2.238V3.73H1.953V5.969h1.3V3.73H5.207V2.238H3.254V0h-1.3V2.238Z" transform="translate(156.207 196.962)" fill="#fff"/>
    <path id="Vector-213" data-name="Vector" d="M0,2.238V3.73H1.953V5.969h1.3V3.73H5.207V2.238H3.254V0h-1.3V2.238Z" transform="translate(156.207 214.867)" fill="#fff"/>
    <path id="Vector-214" data-name="Vector" d="M0,2.238V3.73H1.953V5.969h1.3V3.73H5.207V2.238H3.254V0h-1.3V2.238Z" transform="translate(156.207 232.773)" fill="#fff"/>
    <path id="Vector-215" data-name="Vector" d="M0,2.238V3.73H1.953V5.969h1.3V3.73H5.207V2.238H3.254V0h-1.3V2.238Z" transform="translate(156.207 250.678)" fill="#fff"/>
    <path id="Vector-216" data-name="Vector" d="M0,2.238V3.73H1.953V5.969h1.3V3.73H5.207V2.238H3.254V0h-1.3V2.238Z" transform="translate(156.207 268.584)" fill="#fff"/>
    <path id="Vector-217" data-name="Vector" d="M0,2.238V3.73H1.953V5.969h1.3V3.73H5.207V2.238H3.254V0h-1.3V2.238Z" transform="translate(156.207 286.489)" fill="#fff"/>
    <path id="Vector-218" data-name="Vector" d="M0,2.238V3.73H1.953V5.969h1.3V3.73H5.207V2.238H3.254V0h-1.3V2.238Z" transform="translate(156.207 304.395)" fill="#fff"/>
    <path id="Vector-219" data-name="Vector" d="M0,2.238V3.73H1.953V5.969h1.3V3.73H5.207V2.238H3.254V0h-1.3V2.238Z" transform="translate(156.207 322.301)" fill="#fff"/>
    <path id="Vector-220" data-name="Vector" d="M0,2.238V3.73H1.953V5.969h1.3V3.73H5.207V2.238H3.254V0h-1.3V2.238Z" transform="translate(156.207 340.206)" fill="#fff"/>
    <path id="Vector-221" data-name="Vector" d="M0,2.238V3.73H1.953V5.969h1.3V3.73H5.207V2.238H3.254V0h-1.3V2.238Z" transform="translate(171.827)" fill="#fff"/>
    <path id="Vector-222" data-name="Vector" d="M0,2.238V3.73H1.953V5.969h1.3V3.73H5.207V2.238H3.254V0h-1.3V2.238Z" transform="translate(171.827 17.906)" fill="#fff"/>
    <path id="Vector-223" data-name="Vector" d="M0,2.238V3.73H1.953V5.969h1.3V3.73H5.207V2.238H3.254V0h-1.3V2.238Z" transform="translate(171.827 35.811)" fill="#fff"/>
    <path id="Vector-224" data-name="Vector" d="M0,2.238V3.73H1.953V5.969h1.3V3.73H5.207V2.238H3.254V0h-1.3V2.238Z" transform="translate(171.827 53.717)" fill="#fff"/>
    <path id="Vector-225" data-name="Vector" d="M0,2.238V3.73H1.953V5.969h1.3V3.73H5.207V2.238H3.254V0h-1.3V2.238Z" transform="translate(171.827 71.622)" fill="#fff"/>
    <path id="Vector-226" data-name="Vector" d="M0,2.238V3.73H1.953V5.969h1.3V3.73H5.207V2.238H3.254V0h-1.3V2.238Z" transform="translate(171.827 89.528)" fill="#fff"/>
    <path id="Vector-227" data-name="Vector" d="M0,2.238V3.73H1.953V5.969h1.3V3.73H5.207V2.238H3.254V0h-1.3V2.238Z" transform="translate(171.827 107.434)" fill="#fff"/>
    <path id="Vector-228" data-name="Vector" d="M0,2.238V3.73H1.953V5.969h1.3V3.73H5.207V2.238H3.254V0h-1.3V2.238Z" transform="translate(171.827 125.339)" fill="#fff"/>
    <path id="Vector-229" data-name="Vector" d="M0,2.238V3.73H1.953V5.969h1.3V3.73H5.207V2.238H3.254V0h-1.3V2.238Z" transform="translate(171.827 143.245)" fill="#fff"/>
    <path id="Vector-230" data-name="Vector" d="M0,2.238V3.73H1.953V5.969h1.3V3.73H5.207V2.238H3.254V0h-1.3V2.238Z" transform="translate(171.827 161.15)" fill="#fff"/>
    <path id="Vector-231" data-name="Vector" d="M0,2.238V3.73H1.953V5.969h1.3V3.73H5.207V2.238H3.254V0h-1.3V2.238Z" transform="translate(171.827 179.056)" fill="#fff"/>
    <path id="Vector-232" data-name="Vector" d="M0,2.238V3.73H1.953V5.969h1.3V3.73H5.207V2.238H3.254V0h-1.3V2.238Z" transform="translate(171.827 196.962)" fill="#fff"/>
    <path id="Vector-233" data-name="Vector" d="M0,2.238V3.73H1.953V5.969h1.3V3.73H5.207V2.238H3.254V0h-1.3V2.238Z" transform="translate(171.827 214.867)" fill="#fff"/>
    <path id="Vector-234" data-name="Vector" d="M0,2.238V3.73H1.953V5.969h1.3V3.73H5.207V2.238H3.254V0h-1.3V2.238Z" transform="translate(171.827 232.773)" fill="#fff"/>
    <path id="Vector-235" data-name="Vector" d="M0,2.238V3.73H1.953V5.969h1.3V3.73H5.207V2.238H3.254V0h-1.3V2.238Z" transform="translate(171.827 250.678)" fill="#fff"/>
    <path id="Vector-236" data-name="Vector" d="M0,2.238V3.73H1.953V5.969h1.3V3.73H5.207V2.238H3.254V0h-1.3V2.238Z" transform="translate(171.827 268.584)" fill="#fff"/>
    <path id="Vector-237" data-name="Vector" d="M0,2.238V3.73H1.953V5.969h1.3V3.73H5.207V2.238H3.254V0h-1.3V2.238Z" transform="translate(171.827 286.489)" fill="#fff"/>
    <path id="Vector-238" data-name="Vector" d="M0,2.238V3.73H1.953V5.969h1.3V3.73H5.207V2.238H3.254V0h-1.3V2.238Z" transform="translate(171.827 304.395)" fill="#fff"/>
    <path id="Vector-239" data-name="Vector" d="M0,2.238V3.73H1.953V5.969h1.3V3.73H5.207V2.238H3.254V0h-1.3V2.238Z" transform="translate(171.827 322.301)" fill="#fff"/>
    <path id="Vector-240" data-name="Vector" d="M0,2.238V3.73H1.953V5.969h1.3V3.73H5.207V2.238H3.254V0h-1.3V2.238Z" transform="translate(171.827 340.206)" fill="#fff"/>
    <path id="Vector-241" data-name="Vector" d="M0,2.238V3.73H1.953V5.969h1.3V3.73H5.207V2.238H3.254V0h-1.3V2.238Z" transform="translate(187.448)" fill="#fff"/>
    <path id="Vector-242" data-name="Vector" d="M0,2.238V3.73H1.953V5.969h1.3V3.73H5.207V2.238H3.254V0h-1.3V2.238Z" transform="translate(187.448 17.906)" fill="#fff"/>
    <path id="Vector-243" data-name="Vector" d="M0,2.238V3.73H1.953V5.969h1.3V3.73H5.207V2.238H3.254V0h-1.3V2.238Z" transform="translate(187.448 35.811)" fill="#fff"/>
    <path id="Vector-244" data-name="Vector" d="M0,2.238V3.73H1.953V5.969h1.3V3.73H5.207V2.238H3.254V0h-1.3V2.238Z" transform="translate(187.448 53.717)" fill="#fff"/>
    <path id="Vector-245" data-name="Vector" d="M0,2.238V3.73H1.953V5.969h1.3V3.73H5.207V2.238H3.254V0h-1.3V2.238Z" transform="translate(187.448 71.622)" fill="#fff"/>
    <path id="Vector-246" data-name="Vector" d="M0,2.238V3.73H1.953V5.969h1.3V3.73H5.207V2.238H3.254V0h-1.3V2.238Z" transform="translate(187.448 89.528)" fill="#fff"/>
    <path id="Vector-247" data-name="Vector" d="M0,2.238V3.73H1.953V5.969h1.3V3.73H5.207V2.238H3.254V0h-1.3V2.238Z" transform="translate(187.448 107.434)" fill="#fff"/>
    <path id="Vector-248" data-name="Vector" d="M0,2.238V3.73H1.953V5.969h1.3V3.73H5.207V2.238H3.254V0h-1.3V2.238Z" transform="translate(187.448 125.339)" fill="#fff"/>
    <path id="Vector-249" data-name="Vector" d="M0,2.238V3.73H1.953V5.969h1.3V3.73H5.207V2.238H3.254V0h-1.3V2.238Z" transform="translate(187.448 143.245)" fill="#fff"/>
    <path id="Vector-250" data-name="Vector" d="M0,2.238V3.73H1.953V5.969h1.3V3.73H5.207V2.238H3.254V0h-1.3V2.238Z" transform="translate(187.448 161.15)" fill="#fff"/>
    <path id="Vector-251" data-name="Vector" d="M0,2.238V3.73H1.953V5.969h1.3V3.73H5.207V2.238H3.254V0h-1.3V2.238Z" transform="translate(187.448 179.056)" fill="#fff"/>
    <path id="Vector-252" data-name="Vector" d="M0,2.238V3.73H1.953V5.969h1.3V3.73H5.207V2.238H3.254V0h-1.3V2.238Z" transform="translate(187.448 196.962)" fill="#fff"/>
    <path id="Vector-253" data-name="Vector" d="M0,2.238V3.73H1.953V5.969h1.3V3.73H5.207V2.238H3.254V0h-1.3V2.238Z" transform="translate(187.448 214.867)" fill="#fff"/>
    <path id="Vector-254" data-name="Vector" d="M0,2.238V3.73H1.953V5.969h1.3V3.73H5.207V2.238H3.254V0h-1.3V2.238Z" transform="translate(187.448 232.773)" fill="#fff"/>
    <path id="Vector-255" data-name="Vector" d="M0,2.238V3.73H1.953V5.969h1.3V3.73H5.207V2.238H3.254V0h-1.3V2.238Z" transform="translate(187.448 250.678)" fill="#fff"/>
    <path id="Vector-256" data-name="Vector" d="M0,2.238V3.73H1.953V5.969h1.3V3.73H5.207V2.238H3.254V0h-1.3V2.238Z" transform="translate(187.448 268.584)" fill="#fff"/>
    <path id="Vector-257" data-name="Vector" d="M0,2.238V3.73H1.953V5.969h1.3V3.73H5.207V2.238H3.254V0h-1.3V2.238Z" transform="translate(187.448 286.489)" fill="#fff"/>
    <path id="Vector-258" data-name="Vector" d="M0,2.238V3.73H1.953V5.969h1.3V3.73H5.207V2.238H3.254V0h-1.3V2.238Z" transform="translate(187.448 304.395)" fill="#fff"/>
    <path id="Vector-259" data-name="Vector" d="M0,2.238V3.73H1.953V5.969h1.3V3.73H5.207V2.238H3.254V0h-1.3V2.238Z" transform="translate(187.448 322.301)" fill="#fff"/>
    <path id="Vector-260" data-name="Vector" d="M0,2.238V3.73H1.953V5.969h1.3V3.73H5.207V2.238H3.254V0h-1.3V2.238Z" transform="translate(187.448 340.206)" fill="#fff"/>
    <path id="Vector-261" data-name="Vector" d="M0,2.238V3.73H1.953V5.969h1.3V3.73H5.207V2.238H3.254V0h-1.3V2.238Z" transform="translate(203.069)" fill="#fff"/>
    <path id="Vector-262" data-name="Vector" d="M0,2.238V3.73H1.953V5.969h1.3V3.73H5.207V2.238H3.254V0h-1.3V2.238Z" transform="translate(203.069 17.906)" fill="#fff"/>
    <path id="Vector-263" data-name="Vector" d="M0,2.238V3.73H1.953V5.969h1.3V3.73H5.207V2.238H3.254V0h-1.3V2.238Z" transform="translate(203.069 35.811)" fill="#fff"/>
    <path id="Vector-264" data-name="Vector" d="M0,2.238V3.73H1.953V5.969h1.3V3.73H5.207V2.238H3.254V0h-1.3V2.238Z" transform="translate(203.069 53.717)" fill="#fff"/>
    <path id="Vector-265" data-name="Vector" d="M0,2.238V3.73H1.953V5.969h1.3V3.73H5.207V2.238H3.254V0h-1.3V2.238Z" transform="translate(203.069 71.622)" fill="#fff"/>
    <path id="Vector-266" data-name="Vector" d="M0,2.238V3.73H1.953V5.969h1.3V3.73H5.207V2.238H3.254V0h-1.3V2.238Z" transform="translate(203.069 89.528)" fill="#fff"/>
    <path id="Vector-267" data-name="Vector" d="M0,2.238V3.73H1.953V5.969h1.3V3.73H5.207V2.238H3.254V0h-1.3V2.238Z" transform="translate(203.069 107.434)" fill="#fff"/>
    <path id="Vector-268" data-name="Vector" d="M0,2.238V3.73H1.953V5.969h1.3V3.73H5.207V2.238H3.254V0h-1.3V2.238Z" transform="translate(203.069 125.339)" fill="#fff"/>
    <path id="Vector-269" data-name="Vector" d="M0,2.238V3.73H1.953V5.969h1.3V3.73H5.207V2.238H3.254V0h-1.3V2.238Z" transform="translate(203.069 143.245)" fill="#fff"/>
    <path id="Vector-270" data-name="Vector" d="M0,2.238V3.73H1.953V5.969h1.3V3.73H5.207V2.238H3.254V0h-1.3V2.238Z" transform="translate(203.069 161.15)" fill="#fff"/>
    <path id="Vector-271" data-name="Vector" d="M0,2.238V3.73H1.953V5.969h1.3V3.73H5.207V2.238H3.254V0h-1.3V2.238Z" transform="translate(203.069 179.056)" fill="#fff"/>
    <path id="Vector-272" data-name="Vector" d="M0,2.238V3.73H1.953V5.969h1.3V3.73H5.207V2.238H3.254V0h-1.3V2.238Z" transform="translate(203.069 196.962)" fill="#fff"/>
    <path id="Vector-273" data-name="Vector" d="M0,2.238V3.73H1.953V5.969h1.3V3.73H5.207V2.238H3.254V0h-1.3V2.238Z" transform="translate(203.069 214.867)" fill="#fff"/>
    <path id="Vector-274" data-name="Vector" d="M0,2.238V3.73H1.953V5.969h1.3V3.73H5.207V2.238H3.254V0h-1.3V2.238Z" transform="translate(203.069 232.773)" fill="#fff"/>
    <path id="Vector-275" data-name="Vector" d="M0,2.238V3.73H1.953V5.969h1.3V3.73H5.207V2.238H3.254V0h-1.3V2.238Z" transform="translate(203.069 250.678)" fill="#fff"/>
    <path id="Vector-276" data-name="Vector" d="M0,2.238V3.73H1.953V5.969h1.3V3.73H5.207V2.238H3.254V0h-1.3V2.238Z" transform="translate(203.069 268.584)" fill="#fff"/>
    <path id="Vector-277" data-name="Vector" d="M0,2.238V3.73H1.953V5.969h1.3V3.73H5.207V2.238H3.254V0h-1.3V2.238Z" transform="translate(203.069 286.489)" fill="#fff"/>
    <path id="Vector-278" data-name="Vector" d="M0,2.238V3.73H1.953V5.969h1.3V3.73H5.207V2.238H3.254V0h-1.3V2.238Z" transform="translate(203.069 304.395)" fill="#fff"/>
    <path id="Vector-279" data-name="Vector" d="M0,2.238V3.73H1.953V5.969h1.3V3.73H5.207V2.238H3.254V0h-1.3V2.238Z" transform="translate(203.069 322.301)" fill="#fff"/>
    <path id="Vector-280" data-name="Vector" d="M0,2.238V3.73H1.953V5.969h1.3V3.73H5.207V2.238H3.254V0h-1.3V2.238Z" transform="translate(203.069 340.206)" fill="#fff"/>
    <path id="Vector-281" data-name="Vector" d="M0,2.238V3.73H1.953V5.969h1.3V3.73H5.207V2.238H3.254V0h-1.3V2.238Z" transform="translate(218.69)" fill="#fff"/>
    <path id="Vector-282" data-name="Vector" d="M0,2.238V3.73H1.953V5.969h1.3V3.73H5.207V2.238H3.254V0h-1.3V2.238Z" transform="translate(218.69 17.906)" fill="#fff"/>
    <path id="Vector-283" data-name="Vector" d="M0,2.238V3.73H1.953V5.969h1.3V3.73H5.207V2.238H3.254V0h-1.3V2.238Z" transform="translate(218.69 35.811)" fill="#fff"/>
    <path id="Vector-284" data-name="Vector" d="M0,2.238V3.73H1.953V5.969h1.3V3.73H5.207V2.238H3.254V0h-1.3V2.238Z" transform="translate(218.69 53.717)" fill="#fff"/>
    <path id="Vector-285" data-name="Vector" d="M0,2.238V3.73H1.953V5.969h1.3V3.73H5.207V2.238H3.254V0h-1.3V2.238Z" transform="translate(218.69 71.622)" fill="#fff"/>
    <path id="Vector-286" data-name="Vector" d="M0,2.238V3.73H1.953V5.969h1.3V3.73H5.207V2.238H3.254V0h-1.3V2.238Z" transform="translate(218.69 89.528)" fill="#fff"/>
    <path id="Vector-287" data-name="Vector" d="M0,2.238V3.73H1.953V5.969h1.3V3.73H5.207V2.238H3.254V0h-1.3V2.238Z" transform="translate(218.69 107.434)" fill="#fff"/>
    <path id="Vector-288" data-name="Vector" d="M0,2.238V3.73H1.953V5.969h1.3V3.73H5.207V2.238H3.254V0h-1.3V2.238Z" transform="translate(218.69 125.339)" fill="#fff"/>
    <path id="Vector-289" data-name="Vector" d="M0,2.238V3.73H1.953V5.969h1.3V3.73H5.207V2.238H3.254V0h-1.3V2.238Z" transform="translate(218.69 143.245)" fill="#fff"/>
    <path id="Vector-290" data-name="Vector" d="M0,2.238V3.73H1.953V5.969h1.3V3.73H5.207V2.238H3.254V0h-1.3V2.238Z" transform="translate(218.69 161.15)" fill="#fff"/>
    <path id="Vector-291" data-name="Vector" d="M0,2.238V3.73H1.953V5.969h1.3V3.73H5.207V2.238H3.254V0h-1.3V2.238Z" transform="translate(218.69 179.056)" fill="#fff"/>
    <path id="Vector-292" data-name="Vector" d="M0,2.238V3.73H1.953V5.969h1.3V3.73H5.207V2.238H3.254V0h-1.3V2.238Z" transform="translate(218.69 196.962)" fill="#fff"/>
    <path id="Vector-293" data-name="Vector" d="M0,2.238V3.73H1.953V5.969h1.3V3.73H5.207V2.238H3.254V0h-1.3V2.238Z" transform="translate(218.69 214.867)" fill="#fff"/>
    <path id="Vector-294" data-name="Vector" d="M0,2.238V3.73H1.953V5.969h1.3V3.73H5.207V2.238H3.254V0h-1.3V2.238Z" transform="translate(218.69 232.773)" fill="#fff"/>
    <path id="Vector-295" data-name="Vector" d="M0,2.238V3.73H1.953V5.969h1.3V3.73H5.207V2.238H3.254V0h-1.3V2.238Z" transform="translate(218.69 250.678)" fill="#fff"/>
    <path id="Vector-296" data-name="Vector" d="M0,2.238V3.73H1.953V5.969h1.3V3.73H5.207V2.238H3.254V0h-1.3V2.238Z" transform="translate(218.69 268.584)" fill="#fff"/>
    <path id="Vector-297" data-name="Vector" d="M0,2.238V3.73H1.953V5.969h1.3V3.73H5.207V2.238H3.254V0h-1.3V2.238Z" transform="translate(218.69 286.489)" fill="#fff"/>
    <path id="Vector-298" data-name="Vector" d="M0,2.238V3.73H1.953V5.969h1.3V3.73H5.207V2.238H3.254V0h-1.3V2.238Z" transform="translate(218.69 304.395)" fill="#fff"/>
    <path id="Vector-299" data-name="Vector" d="M0,2.238V3.73H1.953V5.969h1.3V3.73H5.207V2.238H3.254V0h-1.3V2.238Z" transform="translate(218.69 322.301)" fill="#fff"/>
    <path id="Vector-300" data-name="Vector" d="M0,2.238V3.73H1.953V5.969h1.3V3.73H5.207V2.238H3.254V0h-1.3V2.238Z" transform="translate(218.69 340.206)" fill="#fff"/>
    <path id="Vector-301" data-name="Vector" d="M0,2.238V3.73H1.953V5.969h1.3V3.73H5.207V2.238H3.254V0h-1.3V2.238Z" transform="translate(234.31)" fill="#fff"/>
    <path id="Vector-302" data-name="Vector" d="M0,2.238V3.73H1.953V5.969h1.3V3.73H5.207V2.238H3.254V0h-1.3V2.238Z" transform="translate(234.31 17.906)" fill="#fff"/>
    <path id="Vector-303" data-name="Vector" d="M0,2.238V3.73H1.953V5.969h1.3V3.73H5.207V2.238H3.254V0h-1.3V2.238Z" transform="translate(234.31 35.811)" fill="#fff"/>
    <path id="Vector-304" data-name="Vector" d="M0,2.238V3.73H1.953V5.969h1.3V3.73H5.207V2.238H3.254V0h-1.3V2.238Z" transform="translate(234.31 53.717)" fill="#fff"/>
    <path id="Vector-305" data-name="Vector" d="M0,2.238V3.73H1.953V5.969h1.3V3.73H5.207V2.238H3.254V0h-1.3V2.238Z" transform="translate(234.31 71.622)" fill="#fff"/>
    <path id="Vector-306" data-name="Vector" d="M0,2.238V3.73H1.953V5.969h1.3V3.73H5.207V2.238H3.254V0h-1.3V2.238Z" transform="translate(234.31 89.528)" fill="#fff"/>
    <path id="Vector-307" data-name="Vector" d="M0,2.238V3.73H1.953V5.969h1.3V3.73H5.207V2.238H3.254V0h-1.3V2.238Z" transform="translate(234.31 107.434)" fill="#fff"/>
    <path id="Vector-308" data-name="Vector" d="M0,2.238V3.73H1.953V5.969h1.3V3.73H5.207V2.238H3.254V0h-1.3V2.238Z" transform="translate(234.31 125.339)" fill="#fff"/>
    <path id="Vector-309" data-name="Vector" d="M0,2.238V3.73H1.953V5.969h1.3V3.73H5.207V2.238H3.254V0h-1.3V2.238Z" transform="translate(234.31 143.245)" fill="#fff"/>
    <path id="Vector-310" data-name="Vector" d="M0,2.238V3.73H1.953V5.969h1.3V3.73H5.207V2.238H3.254V0h-1.3V2.238Z" transform="translate(234.31 161.15)" fill="#fff"/>
    <path id="Vector-311" data-name="Vector" d="M0,2.238V3.73H1.953V5.969h1.3V3.73H5.207V2.238H3.254V0h-1.3V2.238Z" transform="translate(234.31 179.056)" fill="#fff"/>
    <path id="Vector-312" data-name="Vector" d="M0,2.238V3.73H1.953V5.969h1.3V3.73H5.207V2.238H3.254V0h-1.3V2.238Z" transform="translate(234.31 196.962)" fill="#fff"/>
    <path id="Vector-313" data-name="Vector" d="M0,2.238V3.73H1.953V5.969h1.3V3.73H5.207V2.238H3.254V0h-1.3V2.238Z" transform="translate(234.31 214.867)" fill="#fff"/>
    <path id="Vector-314" data-name="Vector" d="M0,2.238V3.73H1.953V5.969h1.3V3.73H5.207V2.238H3.254V0h-1.3V2.238Z" transform="translate(234.31 232.773)" fill="#fff"/>
    <path id="Vector-315" data-name="Vector" d="M0,2.238V3.73H1.953V5.969h1.3V3.73H5.207V2.238H3.254V0h-1.3V2.238Z" transform="translate(234.31 250.678)" fill="#fff"/>
    <path id="Vector-316" data-name="Vector" d="M0,2.238V3.73H1.953V5.969h1.3V3.73H5.207V2.238H3.254V0h-1.3V2.238Z" transform="translate(234.31 268.584)" fill="#fff"/>
    <path id="Vector-317" data-name="Vector" d="M0,2.238V3.73H1.953V5.969h1.3V3.73H5.207V2.238H3.254V0h-1.3V2.238Z" transform="translate(234.31 286.489)" fill="#fff"/>
    <path id="Vector-318" data-name="Vector" d="M0,2.238V3.73H1.953V5.969h1.3V3.73H5.207V2.238H3.254V0h-1.3V2.238Z" transform="translate(234.31 304.395)" fill="#fff"/>
    <path id="Vector-319" data-name="Vector" d="M0,2.238V3.73H1.953V5.969h1.3V3.73H5.207V2.238H3.254V0h-1.3V2.238Z" transform="translate(234.31 322.301)" fill="#fff"/>
    <path id="Vector-320" data-name="Vector" d="M0,2.238V3.73H1.953V5.969h1.3V3.73H5.207V2.238H3.254V0h-1.3V2.238Z" transform="translate(234.31 340.206)" fill="#fff"/>
    <path id="Vector-321" data-name="Vector" d="M0,2.238V3.73H1.953V5.969h1.3V3.73H5.207V2.238H3.254V0h-1.3V2.238Z" transform="translate(249.931)" fill="#fff"/>
    <path id="Vector-322" data-name="Vector" d="M0,2.238V3.73H1.953V5.969h1.3V3.73H5.207V2.238H3.254V0h-1.3V2.238Z" transform="translate(249.931 17.906)" fill="#fff"/>
    <path id="Vector-323" data-name="Vector" d="M0,2.238V3.73H1.953V5.969h1.3V3.73H5.207V2.238H3.254V0h-1.3V2.238Z" transform="translate(249.931 35.811)" fill="#fff"/>
    <path id="Vector-324" data-name="Vector" d="M0,2.238V3.73H1.953V5.969h1.3V3.73H5.207V2.238H3.254V0h-1.3V2.238Z" transform="translate(249.931 53.717)" fill="#fff"/>
    <path id="Vector-325" data-name="Vector" d="M0,2.238V3.73H1.953V5.969h1.3V3.73H5.207V2.238H3.254V0h-1.3V2.238Z" transform="translate(249.931 71.622)" fill="#fff"/>
    <path id="Vector-326" data-name="Vector" d="M0,2.238V3.73H1.953V5.969h1.3V3.73H5.207V2.238H3.254V0h-1.3V2.238Z" transform="translate(249.931 89.528)" fill="#fff"/>
    <path id="Vector-327" data-name="Vector" d="M0,2.238V3.73H1.953V5.969h1.3V3.73H5.207V2.238H3.254V0h-1.3V2.238Z" transform="translate(249.931 107.434)" fill="#fff"/>
    <path id="Vector-328" data-name="Vector" d="M0,2.238V3.73H1.953V5.969h1.3V3.73H5.207V2.238H3.254V0h-1.3V2.238Z" transform="translate(249.931 125.339)" fill="#fff"/>
    <path id="Vector-329" data-name="Vector" d="M0,2.238V3.73H1.953V5.969h1.3V3.73H5.207V2.238H3.254V0h-1.3V2.238Z" transform="translate(249.931 143.245)" fill="#fff"/>
    <path id="Vector-330" data-name="Vector" d="M0,2.238V3.73H1.953V5.969h1.3V3.73H5.207V2.238H3.254V0h-1.3V2.238Z" transform="translate(249.931 161.15)" fill="#fff"/>
    <path id="Vector-331" data-name="Vector" d="M0,2.238V3.73H1.953V5.969h1.3V3.73H5.207V2.238H3.254V0h-1.3V2.238Z" transform="translate(249.931 179.056)" fill="#fff"/>
    <path id="Vector-332" data-name="Vector" d="M0,2.238V3.73H1.953V5.969h1.3V3.73H5.207V2.238H3.254V0h-1.3V2.238Z" transform="translate(249.931 196.962)" fill="#fff"/>
    <path id="Vector-333" data-name="Vector" d="M0,2.238V3.73H1.953V5.969h1.3V3.73H5.207V2.238H3.254V0h-1.3V2.238Z" transform="translate(249.931 214.867)" fill="#fff"/>
    <path id="Vector-334" data-name="Vector" d="M0,2.238V3.73H1.953V5.969h1.3V3.73H5.207V2.238H3.254V0h-1.3V2.238Z" transform="translate(249.931 232.773)" fill="#fff"/>
    <path id="Vector-335" data-name="Vector" d="M0,2.238V3.73H1.953V5.969h1.3V3.73H5.207V2.238H3.254V0h-1.3V2.238Z" transform="translate(249.931 250.678)" fill="#fff"/>
    <path id="Vector-336" data-name="Vector" d="M0,2.238V3.73H1.953V5.969h1.3V3.73H5.207V2.238H3.254V0h-1.3V2.238Z" transform="translate(249.931 268.584)" fill="#fff"/>
    <path id="Vector-337" data-name="Vector" d="M0,2.238V3.73H1.953V5.969h1.3V3.73H5.207V2.238H3.254V0h-1.3V2.238Z" transform="translate(249.931 286.489)" fill="#fff"/>
    <path id="Vector-338" data-name="Vector" d="M0,2.238V3.73H1.953V5.969h1.3V3.73H5.207V2.238H3.254V0h-1.3V2.238Z" transform="translate(249.931 304.395)" fill="#fff"/>
    <path id="Vector-339" data-name="Vector" d="M0,2.238V3.73H1.953V5.969h1.3V3.73H5.207V2.238H3.254V0h-1.3V2.238Z" transform="translate(249.931 322.301)" fill="#fff"/>
    <path id="Vector-340" data-name="Vector" d="M0,2.238V3.73H1.953V5.969h1.3V3.73H5.207V2.238H3.254V0h-1.3V2.238Z" transform="translate(249.931 340.206)" fill="#fff"/>
    <path id="Vector-341" data-name="Vector" d="M0,2.238V3.73H1.953V5.969h1.3V3.73H5.207V2.238H3.254V0h-1.3V2.238Z" transform="translate(265.552)" fill="#fff"/>
    <path id="Vector-342" data-name="Vector" d="M0,2.238V3.73H1.953V5.969h1.3V3.73H5.207V2.238H3.254V0h-1.3V2.238Z" transform="translate(265.552 17.906)" fill="#fff"/>
    <path id="Vector-343" data-name="Vector" d="M0,2.238V3.73H1.953V5.969h1.3V3.73H5.207V2.238H3.254V0h-1.3V2.238Z" transform="translate(265.552 35.811)" fill="#fff"/>
    <path id="Vector-344" data-name="Vector" d="M0,2.238V3.73H1.953V5.969h1.3V3.73H5.207V2.238H3.254V0h-1.3V2.238Z" transform="translate(265.552 53.717)" fill="#fff"/>
    <path id="Vector-345" data-name="Vector" d="M0,2.238V3.73H1.953V5.969h1.3V3.73H5.207V2.238H3.254V0h-1.3V2.238Z" transform="translate(265.552 71.622)" fill="#fff"/>
    <path id="Vector-346" data-name="Vector" d="M0,2.238V3.73H1.953V5.969h1.3V3.73H5.207V2.238H3.254V0h-1.3V2.238Z" transform="translate(265.552 89.528)" fill="#fff"/>
    <path id="Vector-347" data-name="Vector" d="M0,2.238V3.73H1.953V5.969h1.3V3.73H5.207V2.238H3.254V0h-1.3V2.238Z" transform="translate(265.552 107.434)" fill="#fff"/>
    <path id="Vector-348" data-name="Vector" d="M0,2.238V3.73H1.953V5.969h1.3V3.73H5.207V2.238H3.254V0h-1.3V2.238Z" transform="translate(265.552 125.339)" fill="#fff"/>
    <path id="Vector-349" data-name="Vector" d="M0,2.238V3.73H1.953V5.969h1.3V3.73H5.207V2.238H3.254V0h-1.3V2.238Z" transform="translate(265.552 143.245)" fill="#fff"/>
    <path id="Vector-350" data-name="Vector" d="M0,2.238V3.73H1.953V5.969h1.3V3.73H5.207V2.238H3.254V0h-1.3V2.238Z" transform="translate(265.552 161.15)" fill="#fff"/>
    <path id="Vector-351" data-name="Vector" d="M0,2.238V3.73H1.953V5.969h1.3V3.73H5.207V2.238H3.254V0h-1.3V2.238Z" transform="translate(265.552 179.056)" fill="#fff"/>
    <path id="Vector-352" data-name="Vector" d="M0,2.238V3.73H1.953V5.969h1.3V3.73H5.207V2.238H3.254V0h-1.3V2.238Z" transform="translate(265.552 196.962)" fill="#fff"/>
    <path id="Vector-353" data-name="Vector" d="M0,2.238V3.73H1.953V5.969h1.3V3.73H5.207V2.238H3.254V0h-1.3V2.238Z" transform="translate(265.552 214.867)" fill="#fff"/>
    <path id="Vector-354" data-name="Vector" d="M0,2.238V3.73H1.953V5.969h1.3V3.73H5.207V2.238H3.254V0h-1.3V2.238Z" transform="translate(265.552 232.773)" fill="#fff"/>
    <path id="Vector-355" data-name="Vector" d="M0,2.238V3.73H1.953V5.969h1.3V3.73H5.207V2.238H3.254V0h-1.3V2.238Z" transform="translate(265.552 250.678)" fill="#fff"/>
    <path id="Vector-356" data-name="Vector" d="M0,2.238V3.73H1.953V5.969h1.3V3.73H5.207V2.238H3.254V0h-1.3V2.238Z" transform="translate(265.552 268.584)" fill="#fff"/>
    <path id="Vector-357" data-name="Vector" d="M0,2.238V3.73H1.953V5.969h1.3V3.73H5.207V2.238H3.254V0h-1.3V2.238Z" transform="translate(265.552 286.489)" fill="#fff"/>
    <path id="Vector-358" data-name="Vector" d="M0,2.238V3.73H1.953V5.969h1.3V3.73H5.207V2.238H3.254V0h-1.3V2.238Z" transform="translate(265.552 304.395)" fill="#fff"/>
    <path id="Vector-359" data-name="Vector" d="M0,2.238V3.73H1.953V5.969h1.3V3.73H5.207V2.238H3.254V0h-1.3V2.238Z" transform="translate(265.552 322.301)" fill="#fff"/>
    <path id="Vector-360" data-name="Vector" d="M0,2.238V3.73H1.953V5.969h1.3V3.73H5.207V2.238H3.254V0h-1.3V2.238Z" transform="translate(265.552 340.206)" fill="#fff"/>
    <path id="Vector-361" data-name="Vector" d="M0,2.238V3.73H1.953V5.969h1.3V3.73H5.207V2.238H3.254V0h-1.3V2.238Z" transform="translate(281.172)" fill="#fff"/>
    <path id="Vector-362" data-name="Vector" d="M0,2.238V3.73H1.953V5.969h1.3V3.73H5.207V2.238H3.254V0h-1.3V2.238Z" transform="translate(281.172 17.906)" fill="#fff"/>
    <path id="Vector-363" data-name="Vector" d="M0,2.238V3.73H1.953V5.969h1.3V3.73H5.207V2.238H3.254V0h-1.3V2.238Z" transform="translate(281.172 35.811)" fill="#fff"/>
    <path id="Vector-364" data-name="Vector" d="M0,2.238V3.73H1.953V5.969h1.3V3.73H5.207V2.238H3.254V0h-1.3V2.238Z" transform="translate(281.172 53.717)" fill="#fff"/>
    <path id="Vector-365" data-name="Vector" d="M0,2.238V3.73H1.953V5.969h1.3V3.73H5.207V2.238H3.254V0h-1.3V2.238Z" transform="translate(281.172 71.622)" fill="#fff"/>
    <path id="Vector-366" data-name="Vector" d="M0,2.238V3.73H1.953V5.969h1.3V3.73H5.207V2.238H3.254V0h-1.3V2.238Z" transform="translate(281.172 89.528)" fill="#fff"/>
    <path id="Vector-367" data-name="Vector" d="M0,2.238V3.73H1.953V5.969h1.3V3.73H5.207V2.238H3.254V0h-1.3V2.238Z" transform="translate(281.172 107.434)" fill="#fff"/>
    <path id="Vector-368" data-name="Vector" d="M0,2.238V3.73H1.953V5.969h1.3V3.73H5.207V2.238H3.254V0h-1.3V2.238Z" transform="translate(281.172 125.339)" fill="#fff"/>
    <path id="Vector-369" data-name="Vector" d="M0,2.238V3.73H1.953V5.969h1.3V3.73H5.207V2.238H3.254V0h-1.3V2.238Z" transform="translate(281.172 143.245)" fill="#fff"/>
    <path id="Vector-370" data-name="Vector" d="M0,2.238V3.73H1.953V5.969h1.3V3.73H5.207V2.238H3.254V0h-1.3V2.238Z" transform="translate(281.172 161.15)" fill="#fff"/>
    <path id="Vector-371" data-name="Vector" d="M0,2.238V3.73H1.953V5.969h1.3V3.73H5.207V2.238H3.254V0h-1.3V2.238Z" transform="translate(281.172 179.056)" fill="#fff"/>
    <path id="Vector-372" data-name="Vector" d="M0,2.238V3.73H1.953V5.969h1.3V3.73H5.207V2.238H3.254V0h-1.3V2.238Z" transform="translate(281.172 196.962)" fill="#fff"/>
    <path id="Vector-373" data-name="Vector" d="M0,2.238V3.73H1.953V5.969h1.3V3.73H5.207V2.238H3.254V0h-1.3V2.238Z" transform="translate(281.172 214.867)" fill="#fff"/>
    <path id="Vector-374" data-name="Vector" d="M0,2.238V3.73H1.953V5.969h1.3V3.73H5.207V2.238H3.254V0h-1.3V2.238Z" transform="translate(281.172 232.773)" fill="#fff"/>
    <path id="Vector-375" data-name="Vector" d="M0,2.238V3.73H1.953V5.969h1.3V3.73H5.207V2.238H3.254V0h-1.3V2.238Z" transform="translate(281.172 250.678)" fill="#fff"/>
    <path id="Vector-376" data-name="Vector" d="M0,2.238V3.73H1.953V5.969h1.3V3.73H5.207V2.238H3.254V0h-1.3V2.238Z" transform="translate(281.172 268.584)" fill="#fff"/>
    <path id="Vector-377" data-name="Vector" d="M0,2.238V3.73H1.953V5.969h1.3V3.73H5.207V2.238H3.254V0h-1.3V2.238Z" transform="translate(281.172 286.489)" fill="#fff"/>
    <path id="Vector-378" data-name="Vector" d="M0,2.238V3.73H1.953V5.969h1.3V3.73H5.207V2.238H3.254V0h-1.3V2.238Z" transform="translate(281.172 304.395)" fill="#fff"/>
    <path id="Vector-379" data-name="Vector" d="M0,2.238V3.73H1.953V5.969h1.3V3.73H5.207V2.238H3.254V0h-1.3V2.238Z" transform="translate(281.172 322.301)" fill="#fff"/>
    <path id="Vector-380" data-name="Vector" d="M0,2.238V3.73H1.953V5.969h1.3V3.73H5.207V2.238H3.254V0h-1.3V2.238Z" transform="translate(281.172 340.206)" fill="#fff"/>
    <path id="Vector-381" data-name="Vector" d="M0,2.238V3.73H1.953V5.969h1.3V3.73H5.207V2.238H3.254V0h-1.3V2.238Z" transform="translate(296.793)" fill="#fff"/>
    <path id="Vector-382" data-name="Vector" d="M0,2.238V3.73H1.953V5.969h1.3V3.73H5.207V2.238H3.254V0h-1.3V2.238Z" transform="translate(296.793 17.906)" fill="#fff"/>
    <path id="Vector-383" data-name="Vector" d="M0,2.238V3.73H1.953V5.969h1.3V3.73H5.207V2.238H3.254V0h-1.3V2.238Z" transform="translate(296.793 35.811)" fill="#fff"/>
    <path id="Vector-384" data-name="Vector" d="M0,2.238V3.73H1.953V5.969h1.3V3.73H5.207V2.238H3.254V0h-1.3V2.238Z" transform="translate(296.793 53.717)" fill="#fff"/>
    <path id="Vector-385" data-name="Vector" d="M0,2.238V3.73H1.953V5.969h1.3V3.73H5.207V2.238H3.254V0h-1.3V2.238Z" transform="translate(296.793 71.622)" fill="#fff"/>
    <path id="Vector-386" data-name="Vector" d="M0,2.238V3.73H1.953V5.969h1.3V3.73H5.207V2.238H3.254V0h-1.3V2.238Z" transform="translate(296.793 89.528)" fill="#fff"/>
    <path id="Vector-387" data-name="Vector" d="M0,2.238V3.73H1.953V5.969h1.3V3.73H5.207V2.238H3.254V0h-1.3V2.238Z" transform="translate(296.793 107.434)" fill="#fff"/>
    <path id="Vector-388" data-name="Vector" d="M0,2.238V3.73H1.953V5.969h1.3V3.73H5.207V2.238H3.254V0h-1.3V2.238Z" transform="translate(296.793 125.339)" fill="#fff"/>
    <path id="Vector-389" data-name="Vector" d="M0,2.238V3.73H1.953V5.969h1.3V3.73H5.207V2.238H3.254V0h-1.3V2.238Z" transform="translate(296.793 143.245)" fill="#fff"/>
    <path id="Vector-390" data-name="Vector" d="M0,2.238V3.73H1.953V5.969h1.3V3.73H5.207V2.238H3.254V0h-1.3V2.238Z" transform="translate(296.793 161.15)" fill="#fff"/>
    <path id="Vector-391" data-name="Vector" d="M0,2.238V3.73H1.953V5.969h1.3V3.73H5.207V2.238H3.254V0h-1.3V2.238Z" transform="translate(296.793 179.056)" fill="#fff"/>
    <path id="Vector-392" data-name="Vector" d="M0,2.238V3.73H1.953V5.969h1.3V3.73H5.207V2.238H3.254V0h-1.3V2.238Z" transform="translate(296.793 196.962)" fill="#fff"/>
    <path id="Vector-393" data-name="Vector" d="M0,2.238V3.73H1.953V5.969h1.3V3.73H5.207V2.238H3.254V0h-1.3V2.238Z" transform="translate(296.793 214.867)" fill="#fff"/>
    <path id="Vector-394" data-name="Vector" d="M0,2.238V3.73H1.953V5.969h1.3V3.73H5.207V2.238H3.254V0h-1.3V2.238Z" transform="translate(296.793 232.773)" fill="#fff"/>
    <path id="Vector-395" data-name="Vector" d="M0,2.238V3.73H1.953V5.969h1.3V3.73H5.207V2.238H3.254V0h-1.3V2.238Z" transform="translate(296.793 250.678)" fill="#fff"/>
    <path id="Vector-396" data-name="Vector" d="M0,2.238V3.73H1.953V5.969h1.3V3.73H5.207V2.238H3.254V0h-1.3V2.238Z" transform="translate(296.793 268.584)" fill="#fff"/>
    <path id="Vector-397" data-name="Vector" d="M0,2.238V3.73H1.953V5.969h1.3V3.73H5.207V2.238H3.254V0h-1.3V2.238Z" transform="translate(296.793 286.489)" fill="#fff"/>
    <path id="Vector-398" data-name="Vector" d="M0,2.238V3.73H1.953V5.969h1.3V3.73H5.207V2.238H3.254V0h-1.3V2.238Z" transform="translate(296.793 304.395)" fill="#fff"/>
    <path id="Vector-399" data-name="Vector" d="M0,2.238V3.73H1.953V5.969h1.3V3.73H5.207V2.238H3.254V0h-1.3V2.238Z" transform="translate(296.793 322.301)" fill="#fff"/>
    <path id="Vector-400" data-name="Vector" d="M0,2.238V3.73H1.953V5.969h1.3V3.73H5.207V2.238H3.254V0h-1.3V2.238Z" transform="translate(296.793 340.206)" fill="#fff"/>
  </g>
</svg>
